<?xml version="1.0" encoding="utf-8"?>
<svg version="1.1" id="Layer_1" xmlns="http://www.w3.org/2000/svg" xmlns:xlink="http://www.w3.org/1999/xlink" x="0px" y="0px"
	 viewBox="0 0 612 612" enable-background="new 0 0 612 612" xml:space="preserve">
<g>
	<path fill="#FFFFFF" d="M577.9,33.1c-2.7-2.7-6.4-4.2-10.2-4.2H357.2c-4,0.1-7.7,1.7-10.3,4.3c-2.6,2.6-4.2,6.3-4.2,10.2
		c0,7.9,6.5,14.4,14.4,14.4h176.6L346.5,245c-5.6,5.6-5.6,14.8,0,20.4c5.6,5.6,14.8,5.6,20.4,0L553.2,79.2v176
		c0,7.9,6.5,14.4,14.4,14.4c7.9,0,14.4-6.5,14.4-14.4l0.1-211.9C582.1,39.5,580.6,35.8,577.9,33.1z"/>
	<path fill="#FFFFFF" d="M567.2,340.4c-7.9,0-14.4,6.5-14.4,14.4v175.5L366.9,344.6c-5.6-5.6-14.8-5.6-20.4,0
		c-5.6,5.6-5.6,14.8,0,20.4l187.3,187.3h-177c-7.9,0-14.4,6.5-14.4,14.4c0,4,1.6,7.6,4.2,10.2c2.6,2.6,6.3,4.2,10.3,4.3h210.4
		c3.8,0,7.5-1.5,10.2-4.2c2.7-2.7,4.2-6.4,4.2-10.2l-0.1-211.9C581.6,346.9,575.1,340.4,567.2,340.4z"/>
	<path fill="#FFFFFF" d="M77.7,57.8h176.6c7.9,0,14.4-6.5,14.4-14.4c0-4-1.6-7.6-4.2-10.2c-2.6-2.6-6.3-4.2-10.3-4.3H43.8
		c-3.8,0-7.5,1.5-10.2,4.2c-2.7,2.7-4.2,6.4-4.2,10.2l0.1,211.9c0,7.9,6.5,14.4,14.4,14.4s14.4-6.5,14.4-14.4v-176l186.3,186.2
		c5.6,5.6,14.8,5.6,20.4,0c5.6-5.6,5.6-14.8,0-20.4L77.7,57.8z"/>
	<path fill="#FFFFFF" d="M265,344.6c-5.6-5.6-14.8-5.6-20.4,0L58.8,530.3V354.8c0-7.9-6.5-14.4-14.4-14.4s-14.4,6.5-14.4,14.4
		l-0.1,211.9c0,3.8,1.5,7.5,4.2,10.2c2.7,2.7,6.4,4.2,10.2,4.2h210.4c4-0.1,7.7-1.7,10.3-4.3c2.6-2.6,4.2-6.3,4.2-10.2
		c0-7.9-6.5-14.4-14.4-14.4h-177L265,365C270.6,359.4,270.6,350.2,265,344.6z"/>
</g>
</svg>
