<?xml version="1.0" encoding="utf-8"?>
<!-- Generator: Adobe Illustrator 18.1.1, SVG Export Plug-In . SVG Version: 6.00 Build 0)  -->
<svg version="1.1" id="Layer_1" xmlns="http://www.w3.org/2000/svg" xmlns:xlink="http://www.w3.org/1999/xlink" x="0px" y="0px"
	 viewBox="0 0 612 282" enable-background="new 0 0 612 282" xml:space="preserve">
<path fill="#FFFFFF" d="M350,271.7c-1,0-1.9-0.2-2.8-0.7c-1.8-1-2.8-2.9-2.8-4.9V11.2c0-2,1.1-3.9,2.8-4.9c1.8-1,3.9-1,5.6,0
	l220.7,127.4c1.8,1,2.8,2.9,2.8,4.9s-1.1,3.9-2.8,4.9L352.8,271C351.9,271.4,351,271.7,350,271.7z M355.6,21v235.3l203.8-117.7
	L355.6,21z"/>
<path fill="#FFFFFF" d="M215.9,271.9c-3.1,0-5.6-2.5-5.6-5.6V11.2c0-3.1,2.5-5.6,5.6-5.6s5.6,2.5,5.6,5.6v255
	C221.6,269.3,219.1,271.9,215.9,271.9z"/>
<path fill="#FFFFFF" d="M81.9,271.9c-3.1,0-5.6-2.5-5.6-5.6V11.2c0-3.1,2.5-5.6,5.6-5.6s5.6,2.5,5.6,5.6v255
	C87.6,269.3,85,271.9,81.9,271.9z"/>
</svg>
