<?xml version="1.0" encoding="utf-8"?>
<!-- Generator: Adobe Illustrator 18.1.1, SVG Export Plug-In . SVG Version: 6.00 Build 0)  -->
<svg version="1.1" xmlns="http://www.w3.org/2000/svg" xmlns:xlink="http://www.w3.org/1999/xlink" x="0px" y="0px"
	 viewBox="0 91 612 612" enable-background="new 0 91 612 612" xml:space="preserve">
<g id="Layer_1">
	<g id="space">
		
			<linearGradient id="SVGID_1_" gradientUnits="userSpaceOnUse" x1="204.5028" y1="630.4764" x2="368.5028" y2="-29.5235" gradientTransform="matrix(1 0 0 -1 0 617)">
			<stop  offset="0" style="stop-color:#FF8F8F"/>
			<stop  offset="0.3569" style="stop-color:#C8CCB1"/>
			<stop  offset="1" style="stop-color:#FFFFFF"/>
		</linearGradient>
		<rect x="0.5" y="91" fill="url(#SVGID_1_)" width="612" height="612"/>
	</g>
</g>
<g id="Layer_3">
	<g>
		<path fill="#7C4568" d="M147.8,169.6v4.3h-26.5v-4.3H147.8z"/>
		<path fill="#633753" d="M174.4,169.6v4.3h-26.5v-4.3H174.4z"/>
		<path fill="#4C2B40" d="M200.9,169.6v4.3h-26.5v-4.3H200.9z"/>
		<path fill="#331C2B" d="M227.4,169.6v4.3h-26.5v-4.3H227.4z"/>
		<path fill="#190E15" d="M254,169.6v4.3h-26.5v-4.3H254z"/>
		<path fill="#190C07" d="M280.5,169.6v4.3H254v-4.3H280.5z"/>
		<path fill="#190C07" d="M307,169.6v4.3h-26.5v-4.3H307z"/>
		<path fill="#190C07" d="M333.5,169.6v4.3H307v-4.3H333.5z"/>
		<path fill="#190C07" d="M360.1,169.6v4.3h-26.5v-4.3H360.1z"/>
		<path fill="#33170E" d="M386.6,169.6v4.3h-26.5v-4.3H386.6z"/>
		<path fill="#33170E" d="M413.1,169.6v4.3h-26.5v-4.3H413.1z"/>
		<path fill="#33170E" d="M439.7,169.6v4.3h-26.5v-4.3H439.7z"/>
		<path fill="#33170E" d="M466.2,169.6v4.3h-26.5v-4.3H466.2z"/>
		<path fill="#7C4568" d="M110.5,176.1v44.1h-4.9v-44.1H110.5z"/>
		<path fill="#633753" d="M124.3,177.4h6.3v12.2h7.9v-12.2h6.3v32.1h-6.3v-14.3h-7.9v14.3h-6.3V177.4z"/>
		<path fill="#4C2B40" d="M163.5,176.1v44.1h-4.9v-44.1H163.5z"/>
		<path fill="#331C2B" d="M177.3,177.4h6.3v12.2h7.9v-12.2h6.3v32.1h-6.3v-14.3h-7.9v14.3h-6.3V177.4z"/>
		<path fill="#190E15" d="M216.6,176.1v44.1h-4.9v-44.1H216.6z"/>
		<path fill="#190C07" d="M232.2,185.4h12.5v19.3h7.8v4.8h-22v-4.8h7.9v-14.4h-6.2V185.4z M238.4,173.7h6.3v7.4h-6.3V173.7z"/>
		<path fill="#190C07" d="M269.6,176.1v44.1h-4.9v-44.1H269.6z"/>
		<path fill="#190C07" d="M290.1,201.6h7.2v5.8l-4.2,8.2h-4.6l1.7-8.2V201.6z M290.1,186.7h7.2v7.9h-7.2V186.7z"/>
		<path fill="#190C07" d="M322.7,176.1v44.1h-4.9v-44.1H322.7z"/>
		<path fill="#33170E" d="M375.8,176.1v44.1h-4.9v-44.1H375.8z"/>
		<path fill="#33170E" d="M396.3,201.6h7.2v5.8l-4.2,8.2h-4.6l1.7-8.2V201.6z M396.3,186.7h7.2v7.9h-7.2V186.7z"/>
		<path fill="#33170E" d="M428.8,176.1v44.1h-4.9v-44.1H428.8z"/>
		<path fill="#4C2314" d="M442.6,177.4h6.3v12.2h7.9v-12.2h6.3v32.1h-6.3v-14.3H449v14.3h-6.3V177.4z"/>
		<path fill="#4C2314" d="M481.9,176.1v44.1H477v-44.1H481.9z"/>
		<path fill="#7C4568" d="M68.3,257.7v4.3H41.7v-4.3H68.3z"/>
		<path fill="#633753" d="M94.8,257.7v4.3H68.3v-4.3H94.8z"/>
		<path fill="#633753" d="M110.5,220.1v44.1h-4.9v-44.1H110.5z"/>
		<path fill="#4C2B40" d="M124.3,221.5h6.3v12.2h7.9v-12.2h6.3v32.1h-6.3v-14.3h-7.9v14.3h-6.3V221.5z"/>
		<path fill="#331C2B" d="M163.5,220.1v44.1h-4.9v-44.1H163.5z"/>
		<path fill="#190E15" d="M177.3,221.5h6.3v12.2h7.9v-12.2h6.3v32.1h-6.3v-14.3h-7.9v14.3h-6.3V221.5z"/>
		<path fill="#190E15" d="M216.6,220.1v44.1h-4.9v-44.1H216.6z"/>
		<path fill="#190C07" d="M245.7,252.7c0,3.6-0.6,6.2-1.9,7.7c-1.3,1.5-3.5,2.3-6.5,2.3h-6.8v-4.8h5c1.4,0,2.4-0.4,3-1.2
			c0.6-0.8,0.9-2.1,0.9-4v-18.3H233v-4.8h12.7V252.7z M245.7,225.1h-6.3v-7.4h6.3V225.1z"/>
		<path fill="#190C07" d="M269.6,220.1v44.1h-4.9v-44.1H269.6z"/>
		<path fill="#190C07" d="M290.1,245.7h7.2v5.8l-4.2,8.2h-4.6l1.7-8.2V245.7z M290.1,230.7h7.2v7.9h-7.2V230.7z"/>
		<path fill="#190C07" d="M322.7,220.1v44.1h-4.9v-44.1H322.7z"/>
		<path fill="#33170E" d="M375.8,220.1v44.1h-4.9v-44.1H375.8z"/>
		<path fill="#33170E" d="M396.3,245.7h7.2v5.8l-4.2,8.2h-4.6l1.7-8.2V245.7z M396.3,230.7h7.2v7.9h-7.2V230.7z"/>
		<path fill="#4C2314" d="M428.8,220.1v44.1h-4.9v-44.1H428.8z"/>
		<path fill="#4C2314" d="M442.6,221.5h6.3v12.2h7.9v-12.2h6.3v32.1h-6.3v-14.3H449v14.3h-6.3V221.5z"/>
		<path fill="#4C2314" d="M481.9,220.1v44.1H477v-44.1H481.9z"/>
		<path fill="#4C2314" d="M519.2,257.7v4.3h-26.5v-4.3H519.2z"/>
		<path fill="#7C4568" d="M30.9,264.2v44.1H26v-44.1H30.9z"/>
		<path fill="#633753" d="M48.9,265.5l16.9,36.2H61l-16.9-36.2H48.9z"/>
		<path fill="#4C2B40" d="M94.8,301.8v4.3H68.3v-4.3H94.8z"/>
		<path fill="#331C2B" d="M121.3,301.8v4.3H94.8v-4.3H121.3z"/>
		<path fill="#190E15" d="M147.8,301.8v4.3h-26.5v-4.3H147.8z"/>
		<path d="M174.4,301.8v4.3h-26.5v-4.3H174.4z"/>
		<path d="M200.9,301.8v4.3h-26.5v-4.3H200.9z"/>
		<path fill="#190C07" d="M227.4,301.8v4.3h-26.5v-4.3H227.4z"/>
		<path fill="#190C07" d="M254,301.8v4.3h-26.5v-4.3H254z"/>
		<path fill="#190C07" d="M280.5,301.8v4.3H254v-4.3H280.5z"/>
		<path fill="#190C07" d="M307,301.8v4.3h-26.5v-4.3H307z"/>
		<path fill="#190C07" d="M333.5,301.8v4.3H307v-4.3H333.5z"/>
		<path d="M360.1,301.8v4.3h-26.5v-4.3H360.1z"/>
		<path fill="#33170E" d="M386.6,301.8v4.3h-26.5v-4.3H386.6z"/>
		<path fill="#33170E" d="M413.1,301.8v4.3h-26.5v-4.3H413.1z"/>
		<path fill="#33170E" d="M439.7,301.8v4.3h-26.5v-4.3H439.7z"/>
		<path fill="#4C2314" d="M466.2,301.8v4.3h-26.5v-4.3H466.2z"/>
		<path fill="#4C2314" d="M492.7,301.8v4.3h-26.5v-4.3H492.7z"/>
		<path fill="#4C2314" d="M519.2,301.8v4.3h-26.5v-4.3H519.2z"/>
		<path fill="#4C2314" d="M545.8,301.8v4.3h-26.5v-4.3H545.8z"/>
		<path fill="#69301C" d="M553,265.5l16.9,36.2h-4.8l-16.9-36.2H553z"/>
		<path fill="#633753" d="M30.9,308.3v44.1H26v-44.1H30.9z"/>
		<path d="M51.4,318.9h7.2v7.9h-7.2V318.9z M51.4,333.8h7.2v7.9h-7.2V333.8z"/>
		<path fill="#4C2B40" d="M83.9,308.3v44.1h-4.9v-44.1H83.9z"/>
		<path fill="#331C2B" d="M97.5,309.6h10.3c3.6,0,6.3,0.7,8.1,2c1.8,1.4,2.7,3.4,2.7,6.1c0,2.1-0.5,3.7-1.6,4.8
			c-1.1,1.2-2.6,1.8-4.7,2c2.5,0.2,4.3,1.1,5.5,2.5c1.2,1.4,1.9,3.4,1.9,5.9c0,3.1-0.9,5.3-2.8,6.7c-1.9,1.4-4.9,2.1-9.1,2.1H97.5
			V309.6z M103.6,314.6v7.5h4.2c1.6,0,2.8-0.3,3.4-0.9c0.7-0.6,1-1.5,1-2.8s-0.3-2.3-1-2.9c-0.7-0.6-1.8-0.9-3.4-0.9H103.6z
			 M103.6,327.1v9.5h4.2c2,0,3.4-0.3,4.2-1s1.2-1.9,1.2-3.6c0-1.7-0.4-3-1.3-3.7s-2.2-1.1-4.2-1.1H103.6z"/>
		<path fill="#190E15" d="M124,309.6h10.3c3.6,0,6.3,0.7,8.1,2c1.8,1.4,2.7,3.4,2.7,6.1c0,2.1-0.5,3.7-1.6,4.8
			c-1.1,1.2-2.6,1.8-4.7,2c2.5,0.2,4.3,1.1,5.5,2.5c1.2,1.4,1.9,3.4,1.9,5.9c0,3.1-0.9,5.3-2.8,6.7c-1.9,1.4-4.9,2.1-9.1,2.1H124
			V309.6z M130.1,314.6v7.5h4.2c1.6,0,2.8-0.3,3.4-0.9c0.7-0.6,1-1.5,1-2.8s-0.3-2.3-1-2.9c-0.7-0.6-1.8-0.9-3.4-0.9H130.1z
			 M130.1,327.1v9.5h4.2c2,0,3.4-0.3,4.2-1s1.2-1.9,1.2-3.6c0-1.7-0.4-3-1.3-3.7s-2.2-1.1-4.2-1.1H130.1z"/>
		<path d="M151.3,309.6h8.7c4.4,0,7.6,0.8,9.6,2.4c1.9,1.6,2.9,4.1,2.9,7.7c0,3.5-1,6.1-2.9,7.7c-1.9,1.6-5.1,2.4-9.6,2.4h-2.4v12
			h-6.3V309.6z M157.7,314.9v9.4h2.6c2.1,0,3.5-0.4,4.4-1.1c0.8-0.7,1.3-1.9,1.3-3.7c0-1.7-0.4-3-1.3-3.7c-0.8-0.7-2.3-1.1-4.4-1.1
			H157.7z"/>
		<path d="M184.7,306.5l6.1,8.1h-4.2l-7.9-8.1H184.7z"/>
		<path fill="#190C07" d="M211.2,306.5l6.1,8.1h-4.2l-7.9-8.1H211.2z"/>
		<path fill="#190C07" d="M228.1,317.8c0-1.9,0.7-3.6,2-4.9s3-2,4.9-2c1.9,0,3.5,0.7,4.9,2c1.3,1.3,2,3,2,4.9s-0.7,3.5-2,4.9
			c-1.3,1.3-3,2-4.9,2c-1.9,0-3.5-0.7-4.9-2C228.8,321.4,228.1,319.7,228.1,317.8z M229.3,329.7l22.4-9l0.9,2.1l-22.5,9L229.3,329.7
			z M235,314.9c-0.8,0-1.5,0.3-2.1,0.9c-0.6,0.6-0.9,1.3-0.9,2.1s0.3,1.5,0.9,2.1c0.6,0.6,1.3,0.9,2.1,0.9c0.8,0,1.5-0.3,2.1-0.9
			c0.6-0.6,0.8-1.3,0.8-2.1c0-0.8-0.3-1.5-0.9-2.1C236.5,315.1,235.8,314.9,235,314.9z M239.9,334.9c0-1.9,0.7-3.6,2-4.9s3-2,4.9-2
			c1.9,0,3.5,0.7,4.9,2c1.3,1.3,2,3,2,4.9c0,1.9-0.7,3.5-2,4.9c-1.3,1.3-3,2-4.9,2c-1.9,0-3.5-0.7-4.9-2
			C240.6,338.4,239.9,336.8,239.9,334.9z M246.7,331.9c-0.8,0-1.5,0.3-2.1,0.9c-0.6,0.6-0.8,1.3-0.8,2.1s0.3,1.5,0.8,2.1
			c0.6,0.6,1.2,0.8,2.1,0.8c0.8,0,1.5-0.3,2.1-0.9c0.6-0.6,0.9-1.3,0.9-2.1c0-0.8-0.3-1.5-0.9-2.1
			C248.2,332.2,247.5,331.9,246.7,331.9z"/>
		<path fill="#190C07" d="M256.6,309.6H267c3.6,0,6.3,0.7,8.1,2c1.8,1.4,2.7,3.4,2.7,6.1c0,2.1-0.5,3.7-1.6,4.8
			c-1.1,1.2-2.6,1.8-4.7,2c2.5,0.2,4.3,1.1,5.5,2.5c1.2,1.4,1.9,3.4,1.9,5.9c0,3.1-0.9,5.3-2.8,6.7c-1.9,1.4-4.9,2.1-9.1,2.1h-10.3
			V309.6z M262.8,314.6v7.5h4.2c1.6,0,2.8-0.3,3.4-0.9c0.7-0.6,1-1.5,1-2.8s-0.3-2.3-1-2.9c-0.7-0.6-1.8-0.9-3.4-0.9H262.8z
			 M262.8,327.1v9.5h4.2c2,0,3.4-0.3,4.2-1s1.2-1.9,1.2-3.6c0-1.7-0.4-3-1.3-3.7s-2.2-1.1-4.2-1.1H262.8z"/>
		<path fill="#190C07" d="M283.2,309.6h10.3c3.6,0,6.3,0.7,8.1,2c1.8,1.4,2.7,3.4,2.7,6.1c0,2.1-0.5,3.7-1.6,4.8
			c-1.1,1.2-2.6,1.8-4.7,2c2.5,0.2,4.3,1.1,5.5,2.5c1.2,1.4,1.9,3.4,1.9,5.9c0,3.1-0.9,5.3-2.8,6.7c-1.9,1.4-4.9,2.1-9.1,2.1h-10.3
			V309.6z M289.3,314.6v7.5h4.2c1.6,0,2.8-0.3,3.4-0.9c0.7-0.6,1-1.5,1-2.8s-0.3-2.3-1-2.9c-0.7-0.6-1.8-0.9-3.4-0.9H289.3z
			 M289.3,327.1v9.5h4.2c2,0,3.4-0.3,4.2-1s1.2-1.9,1.2-3.6c0-1.7-0.4-3-1.3-3.7s-2.2-1.1-4.2-1.1H289.3z"/>
		<path fill="#190C07" d="M309.7,309.6h10.3c3.6,0,6.3,0.7,8.1,2c1.8,1.4,2.7,3.4,2.7,6.1c0,2.1-0.5,3.7-1.6,4.8
			c-1.1,1.2-2.6,1.8-4.7,2c2.5,0.2,4.3,1.1,5.5,2.5c1.2,1.4,1.9,3.4,1.9,5.9c0,3.1-0.9,5.3-2.8,6.7s-4.9,2.1-9.1,2.1h-10.3V309.6z
			 M315.8,314.6v7.5h4.2c1.6,0,2.8-0.3,3.4-0.9c0.7-0.6,1-1.5,1-2.8s-0.3-2.3-1-2.9c-0.7-0.6-1.8-0.9-3.4-0.9H315.8z M315.8,327.1
			v9.5h4.2c2,0,3.4-0.3,4.2-1s1.2-1.9,1.2-3.6c0-1.7-0.4-3-1.3-3.7c-0.8-0.8-2.2-1.1-4.2-1.1H315.8z"/>
		<path fill="#33170E" d="M336.2,309.6h10.3c3.6,0,6.3,0.7,8.1,2s2.7,3.4,2.7,6.1c0,2.1-0.5,3.7-1.6,4.8c-1.1,1.2-2.6,1.8-4.7,2
			c2.5,0.2,4.3,1.1,5.5,2.5c1.2,1.4,1.9,3.4,1.9,5.9c0,3.1-0.9,5.3-2.8,6.7c-1.9,1.4-4.9,2.1-9.1,2.1h-10.3V309.6z M342.4,314.6v7.5
			h4.2c1.6,0,2.8-0.3,3.4-0.9c0.7-0.6,1-1.5,1-2.8s-0.3-2.3-1-2.9c-0.7-0.6-1.8-0.9-3.4-0.9H342.4z M342.4,327.1v9.5h4.2
			c2,0,3.4-0.3,4.2-1c0.8-0.7,1.2-1.9,1.2-3.6c0-1.7-0.4-3-1.3-3.7c-0.8-0.8-2.2-1.1-4.2-1.1H342.4z"/>
		<path fill="#33170E" d="M362.8,309.6h10.3c3.6,0,6.3,0.7,8.1,2s2.7,3.4,2.7,6.1c0,2.1-0.5,3.7-1.6,4.8c-1.1,1.2-2.6,1.8-4.7,2
			c2.5,0.2,4.3,1.1,5.5,2.5c1.2,1.4,1.9,3.4,1.9,5.9c0,3.1-0.9,5.3-2.8,6.7c-1.9,1.4-4.9,2.1-9.1,2.1h-10.3V309.6z M368.9,314.6v7.5
			h4.2c1.6,0,2.8-0.3,3.4-0.9c0.7-0.6,1-1.5,1-2.8s-0.3-2.3-1-2.9c-0.7-0.6-1.8-0.9-3.4-0.9H368.9z M368.9,327.1v9.5h4.2
			c2,0,3.4-0.3,4.2-1c0.8-0.7,1.2-1.9,1.2-3.6c0-1.7-0.4-3-1.3-3.7c-0.8-0.8-2.2-1.1-4.2-1.1H368.9z"/>
		<path fill="#33170E" d="M389.3,309.6h10.3c3.6,0,6.3,0.7,8.1,2s2.7,3.4,2.7,6.1c0,2.1-0.5,3.7-1.6,4.8c-1.1,1.2-2.6,1.8-4.7,2
			c2.5,0.2,4.3,1.1,5.5,2.5c1.2,1.4,1.9,3.4,1.9,5.9c0,3.1-0.9,5.3-2.8,6.7c-1.9,1.4-4.9,2.1-9.1,2.1h-10.3V309.6z M395.4,314.6v7.5
			h4.2c1.6,0,2.8-0.3,3.4-0.9c0.7-0.6,1-1.5,1-2.8s-0.3-2.3-1-2.9c-0.7-0.6-1.8-0.9-3.4-0.9H395.4z M395.4,327.1v9.5h4.2
			c2,0,3.4-0.3,4.2-1c0.8-0.7,1.2-1.9,1.2-3.6c0-1.7-0.4-3-1.3-3.7c-0.8-0.8-2.2-1.1-4.2-1.1H395.4z"/>
		<path fill="#4C2314" d="M415.8,309.6h10.3c3.6,0,6.3,0.7,8.1,2s2.7,3.4,2.7,6.1c0,2.1-0.5,3.7-1.6,4.8c-1.1,1.2-2.6,1.8-4.7,2
			c2.5,0.2,4.3,1.1,5.5,2.5c1.2,1.4,1.9,3.4,1.9,5.9c0,3.1-0.9,5.3-2.8,6.7c-1.9,1.4-4.9,2.1-9.1,2.1h-10.3V309.6z M422,314.6v7.5
			h4.2c1.6,0,2.8-0.3,3.4-0.9c0.7-0.6,1-1.5,1-2.8s-0.3-2.3-1-2.9c-0.7-0.6-1.8-0.9-3.4-0.9H422z M422,327.1v9.5h4.2
			c2,0,3.4-0.3,4.2-1c0.8-0.7,1.2-1.9,1.2-3.6c0-1.7-0.4-3-1.3-3.7c-0.8-0.8-2.2-1.1-4.2-1.1H422z"/>
		<path fill="#4C2314" d="M442.3,309.6h10.3c3.6,0,6.3,0.7,8.1,2s2.7,3.4,2.7,6.1c0,2.1-0.5,3.7-1.6,4.8c-1.1,1.2-2.6,1.8-4.7,2
			c2.5,0.2,4.3,1.1,5.5,2.5c1.2,1.4,1.9,3.4,1.9,5.9c0,3.1-0.9,5.3-2.8,6.7c-1.9,1.4-4.9,2.1-9.1,2.1h-10.3V309.6z M448.5,314.6v7.5
			h4.2c1.6,0,2.8-0.3,3.4-0.9c0.7-0.6,1-1.5,1-2.8s-0.3-2.3-1-2.9c-0.7-0.6-1.8-0.9-3.4-0.9H448.5z M448.5,327.1v9.5h4.2
			c2,0,3.4-0.3,4.2-1c0.8-0.7,1.2-1.9,1.2-3.6c0-1.7-0.4-3-1.3-3.7c-0.8-0.8-2.2-1.1-4.2-1.1H448.5z"/>
		<path fill="#4C2314" d="M468.9,309.6h10.3c3.6,0,6.3,0.7,8.1,2s2.7,3.4,2.7,6.1c0,2.1-0.5,3.7-1.6,4.8c-1.1,1.2-2.6,1.8-4.7,2
			c2.5,0.2,4.3,1.1,5.5,2.5c1.2,1.4,1.9,3.4,1.9,5.9c0,3.1-0.9,5.3-2.8,6.7c-1.9,1.4-4.9,2.1-9.1,2.1h-10.3V309.6z M475,314.6v7.5
			h4.2c1.6,0,2.8-0.3,3.4-0.9c0.7-0.6,1-1.5,1-2.8s-0.3-2.3-1-2.9c-0.7-0.6-1.8-0.9-3.4-0.9H475z M475,327.1v9.5h4.2
			c2,0,3.4-0.3,4.2-1c0.8-0.7,1.2-1.9,1.2-3.6c0-1.7-0.4-3-1.3-3.7c-0.8-0.8-2.2-1.1-4.2-1.1H475z"/>
		<path fill="#4C2314" d="M495.4,309.6h10.3c3.6,0,6.3,0.7,8.1,2s2.7,3.4,2.7,6.1c0,2.1-0.5,3.7-1.6,4.8c-1.1,1.2-2.6,1.8-4.7,2
			c2.5,0.2,4.3,1.1,5.5,2.5c1.2,1.4,1.9,3.4,1.9,5.9c0,3.1-0.9,5.3-2.8,6.7c-1.9,1.4-4.9,2.1-9.1,2.1h-10.3V309.6z M501.5,314.6v7.5
			h4.2c1.6,0,2.8-0.3,3.4-0.9c0.7-0.6,1-1.5,1-2.8s-0.3-2.3-1-2.9c-0.7-0.6-1.8-0.9-3.4-0.9H501.5z M501.5,327.1v9.5h4.2
			c2,0,3.4-0.3,4.2-1c0.8-0.7,1.2-1.9,1.2-3.6c0-1.7-0.4-3-1.3-3.7c-0.8-0.8-2.2-1.1-4.2-1.1H501.5z"/>
		<path fill="#69301C" d="M521.9,309.6h10.3c3.6,0,6.3,0.7,8.1,2s2.7,3.4,2.7,6.1c0,2.1-0.5,3.7-1.6,4.8c-1.1,1.2-2.6,1.8-4.7,2
			c2.5,0.2,4.3,1.1,5.5,2.5c1.2,1.4,1.9,3.4,1.9,5.9c0,3.1-0.9,5.3-2.8,6.7c-1.9,1.4-4.9,2.1-9.1,2.1h-10.3V309.6z M528.1,314.6v7.5
			h4.2c1.6,0,2.8-0.3,3.4-0.9c0.7-0.6,1-1.5,1-2.8s-0.3-2.3-1-2.9c-0.7-0.6-1.8-0.9-3.4-0.9H528.1z M528.1,327.1v9.5h4.2
			c2,0,3.4-0.3,4.2-1c0.8-0.7,1.2-1.9,1.2-3.6c0-1.7-0.4-3-1.3-3.7c-0.8-0.8-2.2-1.1-4.2-1.1H528.1z"/>
		<path fill="#69301C" d="M548.5,309.6h10.3c3.6,0,6.3,0.7,8.1,2s2.7,3.4,2.7,6.1c0,2.1-0.5,3.7-1.6,4.8c-1.1,1.2-2.6,1.8-4.7,2
			c2.5,0.2,4.3,1.1,5.5,2.5c1.2,1.4,1.9,3.4,1.9,5.9c0,3.1-0.9,5.3-2.8,6.7c-1.9,1.4-4.9,2.1-9.1,2.1h-10.3V309.6z M554.6,314.6v7.5
			h4.2c1.6,0,2.8-0.3,3.4-0.9c0.7-0.6,1-1.5,1-2.8s-0.3-2.3-1-2.9c-0.7-0.6-1.8-0.9-3.4-0.9H554.6z M554.6,327.1v9.5h4.2
			c2,0,3.4-0.3,4.2-1c0.8-0.7,1.2-1.9,1.2-3.6c0-1.7-0.4-3-1.3-3.7c-0.8-0.8-2.2-1.1-4.2-1.1H554.6z"/>
		<path fill="#69301C" d="M588,308.3v44.1h-4.9v-44.1H588z"/>
		<path fill="#4C2B40" d="M22.4,353.7l16.9,36.2h-4.8l-16.9-36.2H22.4z"/>
		<path fill="#331C2B" d="M83.9,352.3v44.1h-4.9v-44.1H83.9z"/>
		<path fill="#190E15" d="M97.5,353.6h10.3c3.6,0,6.3,0.7,8.1,2c1.8,1.4,2.7,3.4,2.7,6.1c0,2.1-0.5,3.7-1.6,4.8
			c-1.1,1.2-2.6,1.8-4.7,2c2.5,0.2,4.3,1.1,5.5,2.5c1.2,1.4,1.9,3.4,1.9,5.9c0,3.1-0.9,5.3-2.8,6.7c-1.9,1.4-4.9,2.1-9.1,2.1H97.5
			V353.6z M103.6,358.7v7.5h4.2c1.6,0,2.8-0.3,3.4-0.9c0.7-0.6,1-1.5,1-2.8s-0.3-2.3-1-2.9c-0.7-0.6-1.8-0.9-3.4-0.9H103.6z
			 M103.6,371.2v9.5h4.2c2,0,3.4-0.3,4.2-1s1.2-1.9,1.2-3.6c0-1.7-0.4-3-1.3-3.7s-2.2-1.1-4.2-1.1H103.6z"/>
		<path d="M124,353.6h10.3c3.6,0,6.3,0.7,8.1,2c1.8,1.4,2.7,3.4,2.7,6.1c0,2.1-0.5,3.7-1.6,4.8c-1.1,1.2-2.6,1.8-4.7,2
			c2.5,0.2,4.3,1.1,5.5,2.5c1.2,1.4,1.9,3.4,1.9,5.9c0,3.1-0.9,5.3-2.8,6.7c-1.9,1.4-4.9,2.1-9.1,2.1H124V353.6z M130.1,358.7v7.5
			h4.2c1.6,0,2.8-0.3,3.4-0.9c0.7-0.6,1-1.5,1-2.8s-0.3-2.3-1-2.9c-0.7-0.6-1.8-0.9-3.4-0.9H130.1z M130.1,371.2v9.5h4.2
			c2,0,3.4-0.3,4.2-1s1.2-1.9,1.2-3.6c0-1.7-0.4-3-1.3-3.7s-2.2-1.1-4.2-1.1H130.1z"/>
		<path d="M167.7,352.3c-1.9,3.4-3.3,6.8-4.2,10c-0.9,3.2-1.4,6.4-1.4,9.7c0,3.2,0.5,6.4,1.4,9.6c0.9,3.2,2.3,6.6,4.2,10h-4.9
			c-2.3-3.3-4-6.6-5.1-9.8c-1.1-3.2-1.7-6.5-1.7-9.9c0-3.3,0.6-6.6,1.7-9.9c1.1-3.2,2.8-6.5,5.1-9.8H167.7z"/>
		<path fill="#0060B7" d="M194.3,352.3c-1.9,3.4-3.3,6.8-4.2,10c-0.9,3.2-1.4,6.4-1.4,9.7c0,3.2,0.5,6.4,1.4,9.6
			c0.9,3.2,2.3,6.6,4.2,10h-4.9c-2.3-3.3-4-6.6-5.1-9.8c-1.1-3.2-1.7-6.5-1.7-9.9c0-3.3,0.6-6.6,1.7-9.9c1.1-3.2,2.8-6.5,5.1-9.8
			H194.3z"/>
		<path fill="#FFFFFF" d="M206.4,369.4c0-1,0.2-2,0.6-3c0.4-0.9,1-1.8,1.7-2.5c0.8-0.7,1.6-1.3,2.5-1.7c0.9-0.4,1.9-0.6,2.9-0.6
			c1,0,2,0.2,3,0.6s1.8,0.9,2.5,1.7c0.8,0.7,1.3,1.6,1.7,2.5c0.4,0.9,0.6,1.9,0.6,2.9c0,1-0.2,2-0.6,3c-0.4,0.9-1,1.8-1.7,2.5
			c-0.7,0.7-1.6,1.3-2.5,1.7s-1.9,0.6-3,0.6c-1,0-2-0.2-2.9-0.6c-0.9-0.4-1.8-1-2.5-1.7c-0.7-0.7-1.3-1.6-1.7-2.5
			C206.6,371.5,206.4,370.5,206.4,369.4z"/>
		<path fill="#004194" d="M234.1,352.3h4.9c2.3,3.3,4,6.5,5.1,9.8c1.1,3.2,1.7,6.5,1.7,9.9c0,3.3-0.6,6.6-1.7,9.9
			c-1.1,3.2-2.8,6.5-5.1,9.8h-4.9c1.9-3.4,3.3-6.8,4.2-10c0.9-3.2,1.4-6.5,1.4-9.6c0-3.2-0.5-6.4-1.4-9.7S236,355.8,234.1,352.3z"/>
		<path fill="#190C07" d="M256.6,353.6H267c3.6,0,6.3,0.7,8.1,2c1.8,1.4,2.7,3.4,2.7,6.1c0,2.1-0.5,3.7-1.6,4.8
			c-1.1,1.2-2.6,1.8-4.7,2c2.5,0.2,4.3,1.1,5.5,2.5c1.2,1.4,1.9,3.4,1.9,5.9c0,3.1-0.9,5.3-2.8,6.7c-1.9,1.4-4.9,2.1-9.1,2.1h-10.3
			V353.6z M262.8,358.7v7.5h4.2c1.6,0,2.8-0.3,3.4-0.9c0.7-0.6,1-1.5,1-2.8s-0.3-2.3-1-2.9c-0.7-0.6-1.8-0.9-3.4-0.9H262.8z
			 M262.8,371.2v9.5h4.2c2,0,3.4-0.3,4.2-1s1.2-1.9,1.2-3.6c0-1.7-0.4-3-1.3-3.7s-2.2-1.1-4.2-1.1H262.8z"/>
		<path d="M283.2,353.6h10.3c3.6,0,6.3,0.7,8.1,2c1.8,1.4,2.7,3.4,2.7,6.1c0,2.1-0.5,3.7-1.6,4.8c-1.1,1.2-2.6,1.8-4.7,2
			c2.5,0.2,4.3,1.1,5.5,2.5c1.2,1.4,1.9,3.4,1.9,5.9c0,3.1-0.9,5.3-2.8,6.7c-1.9,1.4-4.9,2.1-9.1,2.1h-10.3V353.6z M289.3,358.7v7.5
			h4.2c1.6,0,2.8-0.3,3.4-0.9c0.7-0.6,1-1.5,1-2.8s-0.3-2.3-1-2.9c-0.7-0.6-1.8-0.9-3.4-0.9H289.3z M289.3,371.2v9.5h4.2
			c2,0,3.4-0.3,4.2-1s1.2-1.9,1.2-3.6c0-1.7-0.4-3-1.3-3.7s-2.2-1.1-4.2-1.1H289.3z"/>
		<path fill="#33170E" d="M309.7,353.6h10.3c3.6,0,6.3,0.7,8.1,2c1.8,1.4,2.7,3.4,2.7,6.1c0,2.1-0.5,3.7-1.6,4.8
			c-1.1,1.2-2.6,1.8-4.7,2c2.5,0.2,4.3,1.1,5.5,2.5c1.2,1.4,1.9,3.4,1.9,5.9c0,3.1-0.9,5.3-2.8,6.7s-4.9,2.1-9.1,2.1h-10.3V353.6z
			 M315.8,358.7v7.5h4.2c1.6,0,2.8-0.3,3.4-0.9c0.7-0.6,1-1.5,1-2.8s-0.3-2.3-1-2.9c-0.7-0.6-1.8-0.9-3.4-0.9H315.8z M315.8,371.2
			v9.5h4.2c2,0,3.4-0.3,4.2-1s1.2-1.9,1.2-3.6c0-1.7-0.4-3-1.3-3.7c-0.8-0.8-2.2-1.1-4.2-1.1H315.8z"/>
		<path fill="#33170E" d="M349.2,352.3v44.1h-4.9v-44.1H349.2z"/>
		<path fill="#33170E" d="M375.9,360.2v9.3h9.3v5.1h-9.3v9.3h-5.1v-9.3h-9.3v-5.1h9.3v-9.3H375.9z"/>
		<path fill="#4C2314" d="M410.5,359.3h-13.7v6.9h12.4v5.6h-12.4v14h-6.3v-32.1h20V359.3z"/>
		<path fill="#4C2314" d="M416.6,377.4v-15.7h6.3v14.7c0,1.7,0.2,3,0.7,3.7c0.5,0.7,1.3,1.1,2.4,1.1s2-0.5,2.7-1.5
			c0.6-1,1-2.4,1-4.2v-13.8h6.3v24.1h-6.3v-3.6c-0.4,1.3-1.2,2.4-2.3,3.1c-1.1,0.7-2.4,1.1-3.9,1.1c-2.3,0-4-0.8-5.2-2.3
			C417.2,382.6,416.6,380.4,416.6,377.4z"/>
		<path fill="#4C2314" d="M462.7,370.2v15.6h-6.3v-14.7c0-1.7-0.2-3-0.7-3.8s-1.3-1.1-2.4-1.1c-1.1,0-2,0.5-2.7,1.5
			c-0.7,1-1,2.4-1,4.2v13.8h-6.3v-24.1h6.3v3.6c0.4-1.3,1.2-2.4,2.3-3.1c1.1-0.7,2.4-1.1,3.9-1.1c2.3,0,4,0.8,5.2,2.3
			C462.1,364.9,462.7,367.2,462.7,370.2z"/>
		<path fill="#4C2314" d="M489,384.6c-1.1,0.6-2.2,1.1-3.4,1.4c-1.2,0.3-2.5,0.5-3.9,0.5c-3.7,0-6.6-1.1-8.7-3.4
			c-2.1-2.2-3.1-5.3-3.1-9.3c0-4,1.1-7.1,3.2-9.3c2.1-2.2,5-3.4,8.7-3.4c1.3,0,2.5,0.2,3.7,0.5c1.2,0.3,2.4,0.8,3.6,1.4v5.8
			c-0.9-0.8-1.9-1.4-3-1.8c-1.1-0.4-2.2-0.6-3.4-0.6c-2.1,0-3.6,0.7-4.7,2s-1.7,3.2-1.7,5.6s0.6,4.3,1.7,5.6s2.7,1.9,4.7,1.9
			c1.2,0,2.4-0.2,3.4-0.6c1.1-0.4,2.1-1,3-1.9V384.6z"/>
		<path fill="#69301C" d="M508.4,352.3v44.1h-4.9v-44.1H508.4z"/>
		<path fill="#69301C" d="M521.9,353.6h10.3c3.6,0,6.3,0.7,8.1,2s2.7,3.4,2.7,6.1c0,2.1-0.5,3.7-1.6,4.8c-1.1,1.2-2.6,1.8-4.7,2
			c2.5,0.2,4.3,1.1,5.5,2.5c1.2,1.4,1.9,3.4,1.9,5.9c0,3.1-0.9,5.3-2.8,6.7c-1.9,1.4-4.9,2.1-9.1,2.1h-10.3V353.6z M528.1,358.7v7.5
			h4.2c1.6,0,2.8-0.3,3.4-0.9c0.7-0.6,1-1.5,1-2.8s-0.3-2.3-1-2.9c-0.7-0.6-1.8-0.9-3.4-0.9H528.1z M528.1,371.2v9.5h4.2
			c2,0,3.4-0.3,4.2-1c0.8-0.7,1.2-1.9,1.2-3.6c0-1.7-0.4-3-1.3-3.7c-0.8-0.8-2.2-1.1-4.2-1.1H528.1z"/>
		<path fill="#69301C" d="M548.5,353.6h10.3c3.6,0,6.3,0.7,8.1,2s2.7,3.4,2.7,6.1c0,2.1-0.5,3.7-1.6,4.8c-1.1,1.2-2.6,1.8-4.7,2
			c2.5,0.2,4.3,1.1,5.5,2.5c1.2,1.4,1.9,3.4,1.9,5.9c0,3.1-0.9,5.3-2.8,6.7c-1.9,1.4-4.9,2.1-9.1,2.1h-10.3V353.6z M554.6,358.7v7.5
			h4.2c1.6,0,2.8-0.3,3.4-0.9c0.7-0.6,1-1.5,1-2.8s-0.3-2.3-1-2.9c-0.7-0.6-1.8-0.9-3.4-0.9H554.6z M554.6,371.2v9.5h4.2
			c2,0,3.4-0.3,4.2-1c0.8-0.7,1.2-1.9,1.2-3.6c0-1.7-0.4-3-1.3-3.7c-0.8-0.8-2.2-1.1-4.2-1.1H554.6z"/>
		<path fill="#843C23" d="M588,352.3v44.1h-4.9v-44.1H588z"/>
		<path fill="#331C2B" d="M48.9,397.7l16.9,36.2H61l-16.9-36.2H48.9z"/>
		<path d="M83.9,396.4v44.1h-4.9v-44.1H83.9z"/>
		<path fill="#190E15" d="M96.6,397.7h7.6l3.8,14.1l3.8-14.1h7.6v32.1H114v-25.7l-3.4,14h-5.1l-3.4-14v25.7h-5.5V397.7z"/>
		<path d="M123.2,397.7h7.6l3.8,14.1l3.8-14.1h7.6v32.1h-5.5v-25.7l-3.4,14h-5.1l-3.4-14v25.7h-5.5V397.7z"/>
		<path d="M157.4,409.2c0.8-1.3,1.7-2.3,2.7-3s2.2-1,3.5-1c2.9,0,5.1,1.1,6.6,3.3s2.3,5.3,2.3,9.4c0,4-0.8,7.1-2.3,9.3
			s-3.7,3.3-6.4,3.3c-1.4,0-2.7-0.4-3.8-1.1c-1.1-0.7-1.9-1.7-2.6-3.1v3.6h-6.3v-33.5h6.3V409.2z M166.1,417.9
			c0-2.3-0.4-4.1-1.2-5.5s-1.8-2-3.2-2s-2.4,0.7-3.2,2c-0.8,1.3-1.2,3.1-1.2,5.5s0.4,4.1,1.2,5.5c0.8,1.3,1.9,2,3.2,2s2.4-0.7,3.2-2
			C165.7,422,166.1,420.2,166.1,417.9z"/>
		<path fill="#190C07" d="M198.1,428.7c-1.5,0.6-3,1.1-4.5,1.4c-1.5,0.3-3.1,0.5-4.8,0.5c-4,0-7.1-1.1-9.2-3.2
			c-2.1-2.2-3.2-5.3-3.2-9.3c0-3.9,1-7,3.1-9.3c2.1-2.3,4.8-3.4,8.4-3.4c3.6,0,6.3,1.1,8.3,3.2c2,2.1,3,5.1,3,8.9v2.6h-16.3
			c0,1.9,0.6,3.3,1.7,4.2c1.1,0.9,2.8,1.4,4.9,1.4c1.4,0,2.9-0.2,4.3-0.6s2.9-1.1,4.4-2V428.7z M192.7,415.1c0-1.7-0.5-2.9-1.3-3.8
			c-0.8-0.9-2-1.3-3.6-1.3c-1.4,0-2.6,0.4-3.5,1.3c-0.9,0.9-1.4,2.1-1.5,3.8L192.7,415.1z"/>
		<path fill="#190C07" d="M224.7,416.1v13.7h-6.3v-2.7c-0.8,1.1-1.7,1.9-2.9,2.5c-1.2,0.6-2.5,0.9-3.9,0.9c-2.7,0-4.9-0.7-6.4-2.2
			c-1.5-1.4-2.3-3.5-2.3-6.1c0-2.8,0.9-4.9,2.7-6.2c1.8-1.3,4.6-2,8.5-2h4.4V413c0-1-0.4-1.8-1.1-2.3c-0.7-0.5-1.8-0.8-3.3-0.8
			c-1.5,0-3,0.2-4.4,0.6s-2.9,1-4.4,1.8v-5.4c1.4-0.6,2.8-1,4.2-1.3c1.4-0.3,3-0.4,4.6-0.4c3.9,0,6.7,0.8,8.3,2.4
			C223.9,409.2,224.7,412,224.7,416.1z M216,418.5c-2.4,0-4,0.3-4.9,0.9c-0.9,0.6-1.4,1.6-1.4,3.1c0,1.1,0.3,2,1,2.6s1.5,1,2.6,1
			c1.7,0,3-0.6,3.9-1.9s1.4-3,1.4-5.3v-0.4H216z"/>
		<path fill="#190C07" d="M244.4,409.2v-12.8h6.3v33.5h-6.3v-3.6c-0.7,1.4-1.5,2.4-2.6,3.1c-1.1,0.7-2.3,1.1-3.8,1.1
			c-2.8,0-4.9-1.1-6.4-3.3c-1.5-2.2-2.3-5.3-2.3-9.3c0-4.1,0.8-7.2,2.3-9.4c1.5-2.2,3.7-3.3,6.6-3.3c1.3,0,2.4,0.3,3.5,1
			C242.8,406.9,243.7,407.9,244.4,409.2z M235.7,417.9c0,2.3,0.4,4.1,1.2,5.5c0.8,1.3,1.8,2,3.2,2c1.4,0,2.4-0.7,3.2-2
			c0.8-1.3,1.2-3.1,1.2-5.5s-0.4-4.1-1.2-5.5c-0.8-1.3-1.9-2-3.2-2c-1.4,0-2.4,0.7-3.2,2S235.7,415.6,235.7,417.9z"/>
		<path fill="#190C07" d="M255.8,397.7h7.6l3.8,14.1l3.8-14.1h7.6v32.1h-5.5v-25.7l-3.4,14h-5.1l-3.4-14v25.7h-5.5V397.7z"/>
		<path fill="#33170E" d="M282.3,397.7h7.6l3.8,14.1l3.8-14.1h7.6v32.1h-5.5v-25.7l-3.4,14h-5.1l-3.4-14v25.7h-5.5V397.7z"/>
		<path fill="#33170E" d="M310.7,403.3v-5.6h19.1v5.6h-6.4v20.9h6.4v5.6h-19.1v-5.6h6.4v-20.9H310.7z"/>
		<path fill="#33170E" d="M335.4,397.7h7.6l3.8,14.1l3.8-14.1h7.6v32.1h-5.5v-25.7l-3.4,14h-5.1l-3.4-14v25.7h-5.5V397.7z"/>
		<path fill="#4C2314" d="M361.9,397.7h7.6l3.8,14.1l3.8-14.1h7.6v32.1h-5.5v-25.7l-3.4,14h-5.1l-3.4-14v25.7h-5.5V397.7z"/>
		<path fill="#4C2314" d="M388.5,397.7h7.6l3.8,14.1l3.8-14.1h7.6v32.1h-5.5v-25.7l-3.4,14h-5.1l-3.4-14v25.7h-5.5V397.7z"/>
		<path fill="#4C2314" d="M415,397.7h7.6l3.8,14.1l3.8-14.1h7.6v32.1h-5.5v-25.7l-3.4,14h-5.1l-3.4-14v25.7H415V397.7z"/>
		<path fill="#4C2314" d="M441.5,397.7h7.6l3.8,14.1l3.8-14.1h7.6v32.1h-5.5v-25.7l-3.4,14h-5.1l-3.4-14v25.7h-5.5V397.7z"/>
		<path fill="#69301C" d="M468,397.7h7.6l3.8,14.1l3.8-14.1h7.6v32.1h-5.5v-25.7l-3.4,14h-5.1l-3.4-14v25.7H468V397.7z"/>
		<path fill="#69301C" d="M494.6,397.7h7.6l3.8,14.1l3.8-14.1h7.6v32.1h-5.5v-25.7l-3.4,14h-5.1l-3.4-14v25.7h-5.5V397.7z"/>
		<path fill="#69301C" d="M521.1,397.7h7.6l3.8,14.1l3.8-14.1h7.6v32.1h-5.5v-25.7l-3.4,14H530l-3.4-14v25.7h-5.5V397.7z"/>
		<path fill="#69301C" d="M547.6,397.7h7.6l3.8,14.1l3.8-14.1h7.6v32.1H565v-25.7l-3.4,14h-5.1l-3.4-14v25.7h-5.5V397.7z"/>
		<path fill="#190C07" d="M174.4,478v4.3h-26.5V478H174.4z"/>
		<path fill="#190C07" d="M200.9,478v4.3h-26.5V478H200.9z"/>
		<path fill="#33170E" d="M227.4,478v4.3h-26.5V478H227.4z"/>
		<path fill="#33170E" d="M254,478v4.3h-26.5V478H254z"/>
		<path fill="#33170E" d="M280.5,478v4.3H254V478H280.5z"/>
		<path fill="#190C07" d="M155,485.9l16.9,36.2h-4.8l-16.9-36.2H155z"/>
		<path fill="#190C07" d="M175.1,494.1c0-1.9,0.7-3.5,2-4.9s3-2,4.9-2c1.9,0,3.5,0.7,4.9,2c1.3,1.3,2,3,2,4.9c0,1.9-0.7,3.5-2,4.9
			c-1.3,1.3-3,2-4.9,2c-1.9,0-3.5-0.7-4.9-2C175.7,497.6,175.1,496,175.1,494.1z M176.2,505.9l22.4-9l0.9,2.1l-22.5,9L176.2,505.9z
			 M181.9,491.1c-0.8,0-1.5,0.3-2.1,0.8c-0.6,0.6-0.9,1.3-0.9,2.1c0,0.8,0.3,1.5,0.9,2.1c0.6,0.6,1.3,0.8,2.1,0.8
			c0.8,0,1.5-0.3,2.1-0.8c0.6-0.6,0.8-1.3,0.8-2.1c0-0.8-0.3-1.5-0.9-2.1C183.5,491.4,182.8,491.1,181.9,491.1z M186.9,511.1
			c0-1.9,0.7-3.5,2-4.9s3-2,4.9-2c1.9,0,3.5,0.7,4.9,2c1.3,1.3,2,3,2,4.9c0,1.9-0.7,3.5-2,4.9c-1.3,1.3-3,2-4.9,2
			c-1.9,0-3.5-0.7-4.9-2C187.5,514.7,186.9,513,186.9,511.1z M193.7,508.2c-0.8,0-1.5,0.3-2.1,0.9c-0.6,0.6-0.8,1.3-0.8,2.1
			s0.3,1.5,0.8,2.1c0.6,0.6,1.2,0.8,2.1,0.8c0.8,0,1.5-0.3,2.1-0.9c0.6-0.6,0.9-1.3,0.9-2.1s-0.3-1.5-0.9-2.1
			C195.2,508.4,194.5,508.2,193.7,508.2z"/>
		<path fill="#33170E" d="M201.6,494.1c0-1.9,0.7-3.5,2-4.9s3-2,4.9-2c1.9,0,3.5,0.7,4.9,2c1.3,1.3,2,3,2,4.9c0,1.9-0.7,3.5-2,4.9
			c-1.3,1.3-3,2-4.9,2c-1.9,0-3.5-0.7-4.9-2C202.3,497.6,201.6,496,201.6,494.1z M202.8,505.9l22.4-9l0.9,2.1l-22.5,9L202.8,505.9z
			 M208.5,491.1c-0.8,0-1.5,0.3-2.1,0.8c-0.6,0.6-0.9,1.3-0.9,2.1c0,0.8,0.3,1.5,0.9,2.1c0.6,0.6,1.3,0.8,2.1,0.8
			c0.8,0,1.5-0.3,2.1-0.8c0.6-0.6,0.8-1.3,0.8-2.1c0-0.8-0.3-1.5-0.9-2.1C210,491.4,209.3,491.1,208.5,491.1z M213.4,511.1
			c0-1.9,0.7-3.5,2-4.9s3-2,4.9-2c1.9,0,3.5,0.7,4.9,2c1.3,1.3,2,3,2,4.9c0,1.9-0.7,3.5-2,4.9c-1.3,1.3-3,2-4.9,2
			c-1.9,0-3.5-0.7-4.9-2C214,514.7,213.4,513,213.4,511.1z M220.2,508.2c-0.8,0-1.5,0.3-2.1,0.9c-0.6,0.6-0.8,1.3-0.8,2.1
			s0.3,1.5,0.8,2.1c0.6,0.6,1.2,0.8,2.1,0.8c0.8,0,1.5-0.3,2.1-0.9c0.6-0.6,0.9-1.3,0.9-2.1s-0.3-1.5-0.9-2.1
			C221.7,508.4,221,508.2,220.2,508.2z"/>
		<path fill="#33170E" d="M228.1,494.1c0-1.9,0.7-3.5,2-4.9s3-2,4.9-2c1.9,0,3.5,0.7,4.9,2c1.3,1.3,2,3,2,4.9c0,1.9-0.7,3.5-2,4.9
			c-1.3,1.3-3,2-4.9,2c-1.9,0-3.5-0.7-4.9-2C228.8,497.6,228.1,496,228.1,494.1z M229.3,505.9l22.4-9l0.9,2.1l-22.5,9L229.3,505.9z
			 M235,491.1c-0.8,0-1.5,0.3-2.1,0.8c-0.6,0.6-0.9,1.3-0.9,2.1c0,0.8,0.3,1.5,0.9,2.1c0.6,0.6,1.3,0.8,2.1,0.8
			c0.8,0,1.5-0.3,2.1-0.8c0.6-0.6,0.8-1.3,0.8-2.1c0-0.8-0.3-1.5-0.9-2.1C236.5,491.4,235.8,491.1,235,491.1z M239.9,511.1
			c0-1.9,0.7-3.5,2-4.9s3-2,4.9-2c1.9,0,3.5,0.7,4.9,2c1.3,1.3,2,3,2,4.9c0,1.9-0.7,3.5-2,4.9c-1.3,1.3-3,2-4.9,2
			c-1.9,0-3.5-0.7-4.9-2C240.6,514.7,239.9,513,239.9,511.1z M246.7,508.2c-0.8,0-1.5,0.3-2.1,0.9c-0.6,0.6-0.8,1.3-0.8,2.1
			s0.3,1.5,0.8,2.1c0.6,0.6,1.2,0.8,2.1,0.8c0.8,0,1.5-0.3,2.1-0.9c0.6-0.6,0.9-1.3,0.9-2.1s-0.3-1.5-0.9-2.1
			C248.2,508.4,247.5,508.2,246.7,508.2z"/>
		<path fill="#33170E" d="M254.7,494.1c0-1.9,0.7-3.5,2-4.9s3-2,4.9-2c1.9,0,3.5,0.7,4.9,2c1.3,1.3,2,3,2,4.9c0,1.9-0.7,3.5-2,4.9
			c-1.3,1.3-3,2-4.9,2c-1.9,0-3.5-0.7-4.9-2C255.3,497.6,254.7,496,254.7,494.1z M255.8,505.9l22.4-9l0.9,2.1l-22.5,9L255.8,505.9z
			 M261.5,491.1c-0.8,0-1.5,0.3-2.1,0.8c-0.6,0.6-0.9,1.3-0.9,2.1c0,0.8,0.3,1.5,0.9,2.1c0.6,0.6,1.3,0.8,2.1,0.8
			c0.8,0,1.5-0.3,2.1-0.8c0.6-0.6,0.8-1.3,0.8-2.1c0-0.8-0.3-1.5-0.9-2.1C263,491.4,262.3,491.1,261.5,491.1z M266.4,511.1
			c0-1.9,0.7-3.5,2-4.9s3-2,4.9-2c1.9,0,3.5,0.7,4.9,2c1.3,1.3,2,3,2,4.9c0,1.9-0.7,3.5-2,4.9c-1.3,1.3-3,2-4.9,2
			c-1.9,0-3.5-0.7-4.9-2C267.1,514.7,266.4,513,266.4,511.1z M273.3,508.2c-0.8,0-1.5,0.3-2.1,0.9c-0.6,0.6-0.8,1.3-0.8,2.1
			s0.3,1.5,0.8,2.1c0.6,0.6,1.2,0.8,2.1,0.8c0.8,0,1.5-0.3,2.1-0.9c0.6-0.6,0.9-1.3,0.9-2.1s-0.3-1.5-0.9-2.1
			C274.8,508.4,274.1,508.2,273.3,508.2z"/>
		<path fill="#4C2314" d="M287.7,485.9l16.9,36.2h-4.8l-16.9-36.2H287.7z"/>
		<path fill="#4C2314" d="M386.6,522.1v4.3h-26.5v-4.3H386.6z"/>
		<path fill="#4C2314" d="M413.1,522.1v4.3h-26.5v-4.3H413.1z"/>
		<path fill="#69301C" d="M439.7,522.1v4.3h-26.5v-4.3H439.7z"/>
		<path fill="#69301C" d="M466.2,522.1v4.3h-26.5v-4.3H466.2z"/>
		<path fill="#69301C" d="M492.7,522.1v4.3h-26.5v-4.3H492.7z"/>
		<path fill="#69301C" d="M519.2,522.1v4.3h-26.5v-4.3H519.2z"/>
		<path d="M121.3,566.1v4.3H94.8v-4.3H121.3z"/>
		<path fill="#190C07" d="M147.8,566.1v4.3h-26.5v-4.3H147.8z"/>
		<path fill="#190C07" d="M174.4,566.1v4.3h-26.5v-4.3H174.4z"/>
		<path fill="#190C07" d="M181.6,529.9l16.9,36.2h-4.8l-16.9-36.2H181.6z"/>
		<path fill="#33170E" d="M201.6,538.1c0-1.9,0.7-3.5,2-4.9s3-2,4.9-2c1.9,0,3.5,0.7,4.9,2c1.3,1.3,2,3,2,4.9c0,1.9-0.7,3.5-2,4.9
			c-1.3,1.3-3,2-4.9,2c-1.9,0-3.5-0.7-4.9-2C202.3,541.7,201.6,540,201.6,538.1z M202.8,550l22.4-9l0.9,2.1l-22.5,9L202.8,550z
			 M208.5,535.2c-0.8,0-1.5,0.3-2.1,0.8c-0.6,0.6-0.9,1.3-0.9,2.1c0,0.8,0.3,1.5,0.9,2.1c0.6,0.6,1.3,0.8,2.1,0.8
			c0.8,0,1.5-0.3,2.1-0.8c0.6-0.6,0.8-1.3,0.8-2.1c0-0.8-0.3-1.5-0.9-2.1C210,535.5,209.3,535.2,208.5,535.2z M213.4,555.2
			c0-1.9,0.7-3.5,2-4.9s3-2,4.9-2c1.9,0,3.5,0.7,4.9,2c1.3,1.3,2,3,2,4.9c0,1.9-0.7,3.5-2,4.9c-1.3,1.3-3,2-4.9,2
			c-1.9,0-3.5-0.7-4.9-2C214,558.7,213.4,557.1,213.4,555.2z M220.2,552.2c-0.8,0-1.5,0.3-2.1,0.9c-0.6,0.6-0.8,1.3-0.8,2.1
			s0.3,1.5,0.8,2.1c0.6,0.6,1.2,0.8,2.1,0.8c0.8,0,1.5-0.3,2.1-0.9c0.6-0.6,0.9-1.3,0.9-2.1s-0.3-1.5-0.9-2.1
			C221.7,552.5,221,552.2,220.2,552.2z"/>
		<path fill="#33170E" d="M228.1,538.1c0-1.9,0.7-3.5,2-4.9s3-2,4.9-2c1.9,0,3.5,0.7,4.9,2c1.3,1.3,2,3,2,4.9c0,1.9-0.7,3.5-2,4.9
			c-1.3,1.3-3,2-4.9,2c-1.9,0-3.5-0.7-4.9-2C228.8,541.7,228.1,540,228.1,538.1z M229.3,550l22.4-9l0.9,2.1l-22.5,9L229.3,550z
			 M235,535.2c-0.8,0-1.5,0.3-2.1,0.8c-0.6,0.6-0.9,1.3-0.9,2.1c0,0.8,0.3,1.5,0.9,2.1c0.6,0.6,1.3,0.8,2.1,0.8
			c0.8,0,1.5-0.3,2.1-0.8c0.6-0.6,0.8-1.3,0.8-2.1c0-0.8-0.3-1.5-0.9-2.1C236.5,535.5,235.8,535.2,235,535.2z M239.9,555.2
			c0-1.9,0.7-3.5,2-4.9s3-2,4.9-2c1.9,0,3.5,0.7,4.9,2c1.3,1.3,2,3,2,4.9c0,1.9-0.7,3.5-2,4.9c-1.3,1.3-3,2-4.9,2
			c-1.9,0-3.5-0.7-4.9-2C240.6,558.7,239.9,557.1,239.9,555.2z M246.7,552.2c-0.8,0-1.5,0.3-2.1,0.9c-0.6,0.6-0.8,1.3-0.8,2.1
			s0.3,1.5,0.8,2.1c0.6,0.6,1.2,0.8,2.1,0.8c0.8,0,1.5-0.3,2.1-0.9c0.6-0.6,0.9-1.3,0.9-2.1s-0.3-1.5-0.9-2.1
			C248.2,552.5,247.5,552.2,246.7,552.2z"/>
		<path fill="#4C2314" d="M254.7,538.1c0-1.9,0.7-3.5,2-4.9s3-2,4.9-2c1.9,0,3.5,0.7,4.9,2c1.3,1.3,2,3,2,4.9c0,1.9-0.7,3.5-2,4.9
			c-1.3,1.3-3,2-4.9,2c-1.9,0-3.5-0.7-4.9-2C255.3,541.7,254.7,540,254.7,538.1z M255.8,550l22.4-9l0.9,2.1l-22.5,9L255.8,550z
			 M261.5,535.2c-0.8,0-1.5,0.3-2.1,0.8c-0.6,0.6-0.9,1.3-0.9,2.1c0,0.8,0.3,1.5,0.9,2.1c0.6,0.6,1.3,0.8,2.1,0.8
			c0.8,0,1.5-0.3,2.1-0.8c0.6-0.6,0.8-1.3,0.8-2.1c0-0.8-0.3-1.5-0.9-2.1C263,535.5,262.3,535.2,261.5,535.2z M266.4,555.2
			c0-1.9,0.7-3.5,2-4.9s3-2,4.9-2c1.9,0,3.5,0.7,4.9,2c1.3,1.3,2,3,2,4.9c0,1.9-0.7,3.5-2,4.9c-1.3,1.3-3,2-4.9,2
			c-1.9,0-3.5-0.7-4.9-2C267.1,558.7,266.4,557.1,266.4,555.2z M273.3,552.2c-0.8,0-1.5,0.3-2.1,0.9c-0.6,0.6-0.8,1.3-0.8,2.1
			s0.3,1.5,0.8,2.1c0.6,0.6,1.2,0.8,2.1,0.8c0.8,0,1.5-0.3,2.1-0.9c0.6-0.6,0.9-1.3,0.9-2.1s-0.3-1.5-0.9-2.1
			C274.8,552.5,274.1,552.2,273.3,552.2z"/>
		<path fill="#4C2314" d="M281.2,538.1c0-1.9,0.7-3.5,2-4.9s3-2,4.9-2c1.9,0,3.5,0.7,4.9,2c1.3,1.3,2,3,2,4.9c0,1.9-0.7,3.5-2,4.9
			c-1.3,1.3-3,2-4.9,2c-1.9,0-3.5-0.7-4.9-2C281.9,541.7,281.2,540,281.2,538.1z M282.3,550l22.4-9l0.9,2.1l-22.5,9L282.3,550z
			 M288.1,535.2c-0.8,0-1.5,0.3-2.1,0.8c-0.6,0.6-0.9,1.3-0.9,2.1c0,0.8,0.3,1.5,0.9,2.1c0.6,0.6,1.3,0.8,2.1,0.8
			c0.8,0,1.5-0.3,2.1-0.8c0.6-0.6,0.8-1.3,0.8-2.1c0-0.8-0.3-1.5-0.9-2.1C289.6,535.5,288.9,535.2,288.1,535.2z M293,555.2
			c0-1.9,0.7-3.5,2-4.9s3-2,4.9-2c1.9,0,3.5,0.7,4.9,2c1.3,1.3,2,3,2,4.9c0,1.9-0.7,3.5-2,4.9c-1.3,1.3-3,2-4.9,2
			c-1.9,0-3.5-0.7-4.9-2C293.6,558.7,293,557.1,293,555.2z M299.8,552.2c-0.8,0-1.5,0.3-2.1,0.9c-0.6,0.6-0.8,1.3-0.8,2.1
			s0.3,1.5,0.8,2.1c0.6,0.6,1.2,0.8,2.1,0.8c0.8,0,1.5-0.3,2.1-0.9c0.6-0.6,0.9-1.3,0.9-2.1s-0.3-1.5-0.9-2.1
			C301.3,552.5,300.6,552.2,299.8,552.2z"/>
		<path fill="#4C2314" d="M314.2,529.9l16.9,36.2h-4.8l-16.9-36.2H314.2z"/>
		<path fill="#4C2314" d="M367.3,529.9l16.9,36.2h-4.8l-16.9-36.2H367.3z"/>
		<path fill="#4C2314" d="M387.3,538.1c0-1.9,0.7-3.5,2-4.9s3-2,4.9-2c1.9,0,3.5,0.7,4.9,2c1.3,1.3,2,3,2,4.9c0,1.9-0.7,3.5-2,4.9
			c-1.3,1.3-3,2-4.9,2c-1.9,0-3.5-0.7-4.9-2C388,541.7,387.3,540,387.3,538.1z M388.5,550l22.4-9l0.9,2.1l-22.5,9L388.5,550z
			 M394.2,535.2c-0.8,0-1.5,0.3-2.1,0.8c-0.6,0.6-0.9,1.3-0.9,2.1c0,0.8,0.3,1.5,0.9,2.1c0.6,0.6,1.3,0.8,2.1,0.8
			c0.8,0,1.5-0.3,2.1-0.8c0.6-0.6,0.9-1.3,0.9-2.1c0-0.8-0.3-1.5-0.9-2.1C395.7,535.5,395,535.2,394.2,535.2z M399.1,555.2
			c0-1.9,0.7-3.5,2-4.9c1.3-1.3,3-2,4.9-2c1.9,0,3.5,0.7,4.9,2c1.3,1.3,2,3,2,4.9c0,1.9-0.7,3.5-2,4.9c-1.3,1.3-3,2-4.9,2
			c-1.9,0-3.5-0.7-4.9-2C399.7,558.7,399.1,557.1,399.1,555.2z M405.9,552.2c-0.8,0-1.5,0.3-2.1,0.9c-0.6,0.6-0.9,1.3-0.9,2.1
			s0.3,1.5,0.8,2.1c0.6,0.6,1.2,0.8,2.1,0.8c0.8,0,1.5-0.3,2.1-0.9c0.6-0.6,0.9-1.3,0.9-2.1s-0.3-1.5-0.9-2.1
			C407.4,552.5,406.7,552.2,405.9,552.2z"/>
		<path fill="#69301C" d="M413.8,538.1c0-1.9,0.7-3.5,2-4.9s3-2,4.9-2c1.9,0,3.5,0.7,4.9,2c1.3,1.3,2,3,2,4.9c0,1.9-0.7,3.5-2,4.9
			c-1.3,1.3-3,2-4.9,2c-1.9,0-3.5-0.7-4.9-2C414.5,541.7,413.8,540,413.8,538.1z M415,550l22.4-9l0.9,2.1l-22.5,9L415,550z
			 M420.7,535.2c-0.8,0-1.5,0.3-2.1,0.8c-0.6,0.6-0.9,1.3-0.9,2.1c0,0.8,0.3,1.5,0.9,2.1c0.6,0.6,1.3,0.8,2.1,0.8
			c0.8,0,1.5-0.3,2.1-0.8c0.6-0.6,0.9-1.3,0.9-2.1c0-0.8-0.3-1.5-0.9-2.1C422.2,535.5,421.5,535.2,420.7,535.2z M425.6,555.2
			c0-1.9,0.7-3.5,2-4.9c1.3-1.3,3-2,4.9-2c1.9,0,3.5,0.7,4.9,2c1.3,1.3,2,3,2,4.9c0,1.9-0.7,3.5-2,4.9c-1.3,1.3-3,2-4.9,2
			c-1.9,0-3.5-0.7-4.9-2C426.3,558.7,425.6,557.1,425.6,555.2z M432.4,552.2c-0.8,0-1.5,0.3-2.1,0.9c-0.6,0.6-0.9,1.3-0.9,2.1
			s0.3,1.5,0.8,2.1c0.6,0.6,1.2,0.8,2.1,0.8c0.8,0,1.5-0.3,2.1-0.9c0.6-0.6,0.9-1.3,0.9-2.1s-0.3-1.5-0.9-2.1
			C433.9,552.5,433.2,552.2,432.4,552.2z"/>
		<path fill="#69301C" d="M440.4,538.1c0-1.9,0.7-3.5,2-4.9s3-2,4.9-2c1.9,0,3.5,0.7,4.9,2c1.3,1.3,2,3,2,4.9c0,1.9-0.7,3.5-2,4.9
			c-1.3,1.3-3,2-4.9,2c-1.9,0-3.5-0.7-4.9-2C441,541.7,440.4,540,440.4,538.1z M441.5,550l22.4-9l0.9,2.1l-22.5,9L441.5,550z
			 M447.2,535.2c-0.8,0-1.5,0.3-2.1,0.8c-0.6,0.6-0.9,1.3-0.9,2.1c0,0.8,0.3,1.5,0.9,2.1c0.6,0.6,1.3,0.8,2.1,0.8
			c0.8,0,1.5-0.3,2.1-0.8c0.6-0.6,0.9-1.3,0.9-2.1c0-0.8-0.3-1.5-0.9-2.1C448.7,535.5,448,535.2,447.2,535.2z M452.1,555.2
			c0-1.9,0.7-3.5,2-4.9c1.3-1.3,3-2,4.9-2c1.9,0,3.5,0.7,4.9,2c1.3,1.3,2,3,2,4.9c0,1.9-0.7,3.5-2,4.9c-1.3,1.3-3,2-4.9,2
			c-1.9,0-3.5-0.7-4.9-2C452.8,558.7,452.1,557.1,452.1,555.2z M459,552.2c-0.8,0-1.5,0.3-2.1,0.9c-0.6,0.6-0.9,1.3-0.9,2.1
			s0.3,1.5,0.8,2.1c0.6,0.6,1.2,0.8,2.1,0.8c0.8,0,1.5-0.3,2.1-0.9c0.6-0.6,0.9-1.3,0.9-2.1s-0.3-1.5-0.9-2.1
			C460.5,552.5,459.8,552.2,459,552.2z"/>
		<path fill="#69301C" d="M466.9,538.1c0-1.9,0.7-3.5,2-4.9s3-2,4.9-2c1.9,0,3.5,0.7,4.9,2c1.3,1.3,2,3,2,4.9c0,1.9-0.7,3.5-2,4.9
			c-1.3,1.3-3,2-4.9,2c-1.9,0-3.5-0.7-4.9-2C467.6,541.7,466.9,540,466.9,538.1z M468,550l22.4-9l0.9,2.1l-22.5,9L468,550z
			 M473.8,535.2c-0.8,0-1.5,0.3-2.1,0.8c-0.6,0.6-0.9,1.3-0.9,2.1c0,0.8,0.3,1.5,0.9,2.1c0.6,0.6,1.3,0.8,2.1,0.8
			c0.8,0,1.5-0.3,2.1-0.8c0.6-0.6,0.9-1.3,0.9-2.1c0-0.8-0.3-1.5-0.9-2.1C475.3,535.5,474.6,535.2,473.8,535.2z M478.7,555.2
			c0-1.9,0.7-3.5,2-4.9c1.3-1.3,3-2,4.9-2c1.9,0,3.5,0.7,4.9,2c1.3,1.3,2,3,2,4.9c0,1.9-0.7,3.5-2,4.9c-1.3,1.3-3,2-4.9,2
			c-1.9,0-3.5-0.7-4.9-2C479.3,558.7,478.7,557.1,478.7,555.2z M485.5,552.2c-0.8,0-1.5,0.3-2.1,0.9c-0.6,0.6-0.9,1.3-0.9,2.1
			s0.3,1.5,0.8,2.1c0.6,0.6,1.2,0.8,2.1,0.8c0.8,0,1.5-0.3,2.1-0.9c0.6-0.6,0.9-1.3,0.9-2.1s-0.3-1.5-0.9-2.1
			C487,552.5,486.3,552.2,485.5,552.2z"/>
		<path fill="#69301C" d="M493.4,538.1c0-1.9,0.7-3.5,2-4.9s3-2,4.9-2c1.9,0,3.5,0.7,4.9,2c1.3,1.3,2,3,2,4.9c0,1.9-0.7,3.5-2,4.9
			c-1.3,1.3-3,2-4.9,2c-1.9,0-3.5-0.7-4.9-2C494.1,541.7,493.4,540,493.4,538.1z M494.6,550l22.4-9l0.9,2.1l-22.5,9L494.6,550z
			 M500.3,535.2c-0.8,0-1.5,0.3-2.1,0.8c-0.6,0.6-0.9,1.3-0.9,2.1c0,0.8,0.3,1.5,0.9,2.1c0.6,0.6,1.3,0.8,2.1,0.8
			c0.8,0,1.5-0.3,2.1-0.8c0.6-0.6,0.9-1.3,0.9-2.1c0-0.8-0.3-1.5-0.9-2.1C501.8,535.5,501.1,535.2,500.3,535.2z M505.2,555.2
			c0-1.9,0.7-3.5,2-4.9c1.3-1.3,3-2,4.9-2c1.9,0,3.5,0.7,4.9,2c1.3,1.3,2,3,2,4.9c0,1.9-0.7,3.5-2,4.9c-1.3,1.3-3,2-4.9,2
			c-1.9,0-3.5-0.7-4.9-2C505.9,558.7,505.2,557.1,505.2,555.2z M512,552.2c-0.8,0-1.5,0.3-2.1,0.9c-0.6,0.6-0.9,1.3-0.9,2.1
			s0.3,1.5,0.8,2.1c0.6,0.6,1.2,0.8,2.1,0.8c0.8,0,1.5-0.3,2.1-0.9c0.6-0.6,0.9-1.3,0.9-2.1s-0.3-1.5-0.9-2.1
			C513.5,552.5,512.8,552.2,512,552.2z"/>
		<path fill="#69301C" d="M526.4,529.9l16.9,36.2h-4.8l-16.9-36.2H526.4z"/>
		<path fill="#190C07" d="M102,574l16.9,36.2h-4.8L97.2,574H102z"/>
		<path fill="#190C07" d="M122,582.2c0-1.9,0.7-3.5,2-4.9s3-2,4.9-2c1.9,0,3.5,0.7,4.9,2c1.3,1.3,2,3,2,4.9c0,1.9-0.7,3.5-2,4.9
			c-1.3,1.3-3,2-4.9,2c-1.9,0-3.5-0.7-4.9-2C122.7,585.7,122,584.1,122,582.2z M123.2,594l22.4-9l0.9,2.1l-22.5,9L123.2,594z
			 M128.9,579.2c-0.8,0-1.5,0.3-2.1,0.8c-0.6,0.6-0.9,1.3-0.9,2.1c0,0.8,0.3,1.5,0.9,2.1c0.6,0.6,1.3,0.8,2.1,0.8
			c0.8,0,1.5-0.3,2.1-0.8c0.6-0.6,0.8-1.3,0.8-2.1c0-0.8-0.3-1.5-0.9-2.1C130.4,579.5,129.7,579.2,128.9,579.2z M133.8,599.3
			c0-1.9,0.7-3.5,2-4.9s3-2,4.9-2c1.9,0,3.5,0.7,4.9,2c1.3,1.3,2,3,2,4.9c0,1.9-0.7,3.5-2,4.9c-1.3,1.3-3,2-4.9,2
			c-1.9,0-3.5-0.7-4.9-2C134.5,602.8,133.8,601.2,133.8,599.3z M140.6,596.3c-0.8,0-1.5,0.3-2.1,0.9c-0.6,0.6-0.8,1.3-0.8,2.1
			s0.3,1.5,0.8,2.1c0.6,0.6,1.2,0.8,2.1,0.8c0.8,0,1.5-0.3,2.1-0.9c0.6-0.6,0.9-1.3,0.9-2.1s-0.3-1.5-0.9-2.1
			C142.1,596.6,141.4,596.3,140.6,596.3z"/>
		<path fill="#33170E" d="M148.6,582.2c0-1.9,0.7-3.5,2-4.9s3-2,4.9-2c1.9,0,3.5,0.7,4.9,2c1.3,1.3,2,3,2,4.9c0,1.9-0.7,3.5-2,4.9
			c-1.3,1.3-3,2-4.9,2c-1.9,0-3.5-0.7-4.9-2C149.2,585.7,148.6,584.1,148.6,582.2z M149.7,594l22.4-9l0.9,2.1l-22.5,9L149.7,594z
			 M155.4,579.2c-0.8,0-1.5,0.3-2.1,0.8c-0.6,0.6-0.9,1.3-0.9,2.1c0,0.8,0.3,1.5,0.9,2.1c0.6,0.6,1.3,0.8,2.1,0.8
			c0.8,0,1.5-0.3,2.1-0.8c0.6-0.6,0.8-1.3,0.8-2.1c0-0.8-0.3-1.5-0.9-2.1C156.9,579.5,156.2,579.2,155.4,579.2z M160.3,599.3
			c0-1.9,0.7-3.5,2-4.9s3-2,4.9-2c1.9,0,3.5,0.7,4.9,2c1.3,1.3,2,3,2,4.9c0,1.9-0.7,3.5-2,4.9c-1.3,1.3-3,2-4.9,2
			c-1.9,0-3.5-0.7-4.9-2C161,602.8,160.3,601.2,160.3,599.3z M167.1,596.3c-0.8,0-1.5,0.3-2.1,0.9c-0.6,0.6-0.8,1.3-0.8,2.1
			s0.3,1.5,0.8,2.1c0.6,0.6,1.2,0.8,2.1,0.8c0.8,0,1.5-0.3,2.1-0.9c0.6-0.6,0.9-1.3,0.9-2.1s-0.3-1.5-0.9-2.1
			C168.7,596.6,168,596.3,167.1,596.3z"/>
		<path fill="#33170E" d="M175.1,582.2c0-1.9,0.7-3.5,2-4.9s3-2,4.9-2c1.9,0,3.5,0.7,4.9,2c1.3,1.3,2,3,2,4.9c0,1.9-0.7,3.5-2,4.9
			c-1.3,1.3-3,2-4.9,2c-1.9,0-3.5-0.7-4.9-2C175.7,585.7,175.1,584.1,175.1,582.2z M176.2,594l22.4-9l0.9,2.1l-22.5,9L176.2,594z
			 M181.9,579.2c-0.8,0-1.5,0.3-2.1,0.8c-0.6,0.6-0.9,1.3-0.9,2.1c0,0.8,0.3,1.5,0.9,2.1c0.6,0.6,1.3,0.8,2.1,0.8
			c0.8,0,1.5-0.3,2.1-0.8c0.6-0.6,0.8-1.3,0.8-2.1c0-0.8-0.3-1.5-0.9-2.1C183.5,579.5,182.8,579.2,181.9,579.2z M186.9,599.3
			c0-1.9,0.7-3.5,2-4.9s3-2,4.9-2c1.9,0,3.5,0.7,4.9,2c1.3,1.3,2,3,2,4.9c0,1.9-0.7,3.5-2,4.9c-1.3,1.3-3,2-4.9,2
			c-1.9,0-3.5-0.7-4.9-2C187.5,602.8,186.9,601.2,186.9,599.3z M193.7,596.3c-0.8,0-1.5,0.3-2.1,0.9c-0.6,0.6-0.8,1.3-0.8,2.1
			s0.3,1.5,0.8,2.1c0.6,0.6,1.2,0.8,2.1,0.8c0.8,0,1.5-0.3,2.1-0.9c0.6-0.6,0.9-1.3,0.9-2.1s-0.3-1.5-0.9-2.1
			C195.2,596.6,194.5,596.3,193.7,596.3z"/>
		<path fill="#33170E" d="M201.6,582.2c0-1.9,0.7-3.5,2-4.9s3-2,4.9-2c1.9,0,3.5,0.7,4.9,2c1.3,1.3,2,3,2,4.9c0,1.9-0.7,3.5-2,4.9
			c-1.3,1.3-3,2-4.9,2c-1.9,0-3.5-0.7-4.9-2C202.3,585.7,201.6,584.1,201.6,582.2z M202.8,594l22.4-9l0.9,2.1l-22.5,9L202.8,594z
			 M208.5,579.2c-0.8,0-1.5,0.3-2.1,0.8c-0.6,0.6-0.9,1.3-0.9,2.1c0,0.8,0.3,1.5,0.9,2.1c0.6,0.6,1.3,0.8,2.1,0.8
			c0.8,0,1.5-0.3,2.1-0.8c0.6-0.6,0.8-1.3,0.8-2.1c0-0.8-0.3-1.5-0.9-2.1C210,579.5,209.3,579.2,208.5,579.2z M213.4,599.3
			c0-1.9,0.7-3.5,2-4.9s3-2,4.9-2c1.9,0,3.5,0.7,4.9,2c1.3,1.3,2,3,2,4.9c0,1.9-0.7,3.5-2,4.9c-1.3,1.3-3,2-4.9,2
			c-1.9,0-3.5-0.7-4.9-2C214,602.8,213.4,601.2,213.4,599.3z M220.2,596.3c-0.8,0-1.5,0.3-2.1,0.9c-0.6,0.6-0.8,1.3-0.8,2.1
			s0.3,1.5,0.8,2.1c0.6,0.6,1.2,0.8,2.1,0.8c0.8,0,1.5-0.3,2.1-0.9c0.6-0.6,0.9-1.3,0.9-2.1s-0.3-1.5-0.9-2.1
			C221.7,596.6,221,596.3,220.2,596.3z"/>
		<path fill="#4C2314" d="M228.1,582.2c0-1.9,0.7-3.5,2-4.9s3-2,4.9-2c1.9,0,3.5,0.7,4.9,2c1.3,1.3,2,3,2,4.9c0,1.9-0.7,3.5-2,4.9
			c-1.3,1.3-3,2-4.9,2c-1.9,0-3.5-0.7-4.9-2C228.8,585.7,228.1,584.1,228.1,582.2z M229.3,594l22.4-9l0.9,2.1l-22.5,9L229.3,594z
			 M235,579.2c-0.8,0-1.5,0.3-2.1,0.8c-0.6,0.6-0.9,1.3-0.9,2.1c0,0.8,0.3,1.5,0.9,2.1c0.6,0.6,1.3,0.8,2.1,0.8
			c0.8,0,1.5-0.3,2.1-0.8c0.6-0.6,0.8-1.3,0.8-2.1c0-0.8-0.3-1.5-0.9-2.1C236.5,579.5,235.8,579.2,235,579.2z M239.9,599.3
			c0-1.9,0.7-3.5,2-4.9s3-2,4.9-2c1.9,0,3.5,0.7,4.9,2c1.3,1.3,2,3,2,4.9c0,1.9-0.7,3.5-2,4.9c-1.3,1.3-3,2-4.9,2
			c-1.9,0-3.5-0.7-4.9-2C240.6,602.8,239.9,601.2,239.9,599.3z M246.7,596.3c-0.8,0-1.5,0.3-2.1,0.9c-0.6,0.6-0.8,1.3-0.8,2.1
			s0.3,1.5,0.8,2.1c0.6,0.6,1.2,0.8,2.1,0.8c0.8,0,1.5-0.3,2.1-0.9c0.6-0.6,0.9-1.3,0.9-2.1s-0.3-1.5-0.9-2.1
			C248.2,596.6,247.5,596.3,246.7,596.3z"/>
		<path fill="#4C2314" d="M261.1,574l16.9,36.2h-4.8L256.3,574H261.1z"/>
		<path fill="#4C2314" d="M285.8,572.6h6.7v5.8l-4.2,8.2h-4.6l2.1-8.2V572.6z M297,572.6h6.7v5.8l-4.2,8.2h-4.6l2.1-8.2V572.6z"/>
		<path fill="#4C2314" d="M312.4,572.6h6.7v5.8l-4.2,8.2h-4.6l2.1-8.2V572.6z M323.5,572.6h6.7v5.8l-4.2,8.2h-4.6l2.1-8.2V572.6z"/>
		<path fill="#69301C" d="M393.8,574l16.9,36.2h-4.8L389,574H393.8z"/>
		<path fill="#69301C" d="M413.8,582.2c0-1.9,0.7-3.5,2-4.9s3-2,4.9-2c1.9,0,3.5,0.7,4.9,2c1.3,1.3,2,3,2,4.9c0,1.9-0.7,3.5-2,4.9
			c-1.3,1.3-3,2-4.9,2c-1.9,0-3.5-0.7-4.9-2C414.5,585.7,413.8,584.1,413.8,582.2z M415,594l22.4-9l0.9,2.1l-22.5,9L415,594z
			 M420.7,579.2c-0.8,0-1.5,0.3-2.1,0.8c-0.6,0.6-0.9,1.3-0.9,2.1c0,0.8,0.3,1.5,0.9,2.1c0.6,0.6,1.3,0.8,2.1,0.8
			c0.8,0,1.5-0.3,2.1-0.8c0.6-0.6,0.9-1.3,0.9-2.1c0-0.8-0.3-1.5-0.9-2.1C422.2,579.5,421.5,579.2,420.7,579.2z M425.6,599.3
			c0-1.9,0.7-3.5,2-4.9c1.3-1.3,3-2,4.9-2c1.9,0,3.5,0.7,4.9,2c1.3,1.3,2,3,2,4.9c0,1.9-0.7,3.5-2,4.9c-1.3,1.3-3,2-4.9,2
			c-1.9,0-3.5-0.7-4.9-2C426.3,602.8,425.6,601.2,425.6,599.3z M432.4,596.3c-0.8,0-1.5,0.3-2.1,0.9c-0.6,0.6-0.9,1.3-0.9,2.1
			s0.3,1.5,0.8,2.1c0.6,0.6,1.2,0.8,2.1,0.8c0.8,0,1.5-0.3,2.1-0.9c0.6-0.6,0.9-1.3,0.9-2.1s-0.3-1.5-0.9-2.1
			C433.9,596.6,433.2,596.3,432.4,596.3z"/>
		<path fill="#69301C" d="M440.4,582.2c0-1.9,0.7-3.5,2-4.9s3-2,4.9-2c1.9,0,3.5,0.7,4.9,2c1.3,1.3,2,3,2,4.9c0,1.9-0.7,3.5-2,4.9
			c-1.3,1.3-3,2-4.9,2c-1.9,0-3.5-0.7-4.9-2C441,585.7,440.4,584.1,440.4,582.2z M441.5,594l22.4-9l0.9,2.1l-22.5,9L441.5,594z
			 M447.2,579.2c-0.8,0-1.5,0.3-2.1,0.8c-0.6,0.6-0.9,1.3-0.9,2.1c0,0.8,0.3,1.5,0.9,2.1c0.6,0.6,1.3,0.8,2.1,0.8
			c0.8,0,1.5-0.3,2.1-0.8c0.6-0.6,0.9-1.3,0.9-2.1c0-0.8-0.3-1.5-0.9-2.1C448.7,579.5,448,579.2,447.2,579.2z M452.1,599.3
			c0-1.9,0.7-3.5,2-4.9c1.3-1.3,3-2,4.9-2c1.9,0,3.5,0.7,4.9,2c1.3,1.3,2,3,2,4.9c0,1.9-0.7,3.5-2,4.9c-1.3,1.3-3,2-4.9,2
			c-1.9,0-3.5-0.7-4.9-2C452.8,602.8,452.1,601.2,452.1,599.3z M459,596.3c-0.8,0-1.5,0.3-2.1,0.9c-0.6,0.6-0.9,1.3-0.9,2.1
			s0.3,1.5,0.8,2.1c0.6,0.6,1.2,0.8,2.1,0.8c0.8,0,1.5-0.3,2.1-0.9c0.6-0.6,0.9-1.3,0.9-2.1s-0.3-1.5-0.9-2.1
			C460.5,596.6,459.8,596.3,459,596.3z"/>
		<path fill="#69301C" d="M466.9,582.2c0-1.9,0.7-3.5,2-4.9s3-2,4.9-2c1.9,0,3.5,0.7,4.9,2c1.3,1.3,2,3,2,4.9c0,1.9-0.7,3.5-2,4.9
			c-1.3,1.3-3,2-4.9,2c-1.9,0-3.5-0.7-4.9-2C467.6,585.7,466.9,584.1,466.9,582.2z M468,594l22.4-9l0.9,2.1l-22.5,9L468,594z
			 M473.8,579.2c-0.8,0-1.5,0.3-2.1,0.8c-0.6,0.6-0.9,1.3-0.9,2.1c0,0.8,0.3,1.5,0.9,2.1c0.6,0.6,1.3,0.8,2.1,0.8
			c0.8,0,1.5-0.3,2.1-0.8c0.6-0.6,0.9-1.3,0.9-2.1c0-0.8-0.3-1.5-0.9-2.1C475.3,579.5,474.6,579.2,473.8,579.2z M478.7,599.3
			c0-1.9,0.7-3.5,2-4.9c1.3-1.3,3-2,4.9-2c1.9,0,3.5,0.7,4.9,2c1.3,1.3,2,3,2,4.9c0,1.9-0.7,3.5-2,4.9c-1.3,1.3-3,2-4.9,2
			c-1.9,0-3.5-0.7-4.9-2C479.3,602.8,478.7,601.2,478.7,599.3z M485.5,596.3c-0.8,0-1.5,0.3-2.1,0.9c-0.6,0.6-0.9,1.3-0.9,2.1
			s0.3,1.5,0.8,2.1c0.6,0.6,1.2,0.8,2.1,0.8c0.8,0,1.5-0.3,2.1-0.9c0.6-0.6,0.9-1.3,0.9-2.1s-0.3-1.5-0.9-2.1
			C487,596.6,486.3,596.3,485.5,596.3z"/>
		<path fill="#843C23" d="M493.4,582.2c0-1.9,0.7-3.5,2-4.9s3-2,4.9-2c1.9,0,3.5,0.7,4.9,2c1.3,1.3,2,3,2,4.9c0,1.9-0.7,3.5-2,4.9
			c-1.3,1.3-3,2-4.9,2c-1.9,0-3.5-0.7-4.9-2C494.1,585.7,493.4,584.1,493.4,582.2z M494.6,594l22.4-9l0.9,2.1l-22.5,9L494.6,594z
			 M500.3,579.2c-0.8,0-1.5,0.3-2.1,0.8c-0.6,0.6-0.9,1.3-0.9,2.1c0,0.8,0.3,1.5,0.9,2.1c0.6,0.6,1.3,0.8,2.1,0.8
			c0.8,0,1.5-0.3,2.1-0.8c0.6-0.6,0.9-1.3,0.9-2.1c0-0.8-0.3-1.5-0.9-2.1C501.8,579.5,501.1,579.2,500.3,579.2z M505.2,599.3
			c0-1.9,0.7-3.5,2-4.9c1.3-1.3,3-2,4.9-2c1.9,0,3.5,0.7,4.9,2c1.3,1.3,2,3,2,4.9c0,1.9-0.7,3.5-2,4.9c-1.3,1.3-3,2-4.9,2
			c-1.9,0-3.5-0.7-4.9-2C505.9,602.8,505.2,601.2,505.2,599.3z M512,596.3c-0.8,0-1.5,0.3-2.1,0.9c-0.6,0.6-0.9,1.3-0.9,2.1
			s0.3,1.5,0.8,2.1c0.6,0.6,1.2,0.8,2.1,0.8c0.8,0,1.5-0.3,2.1-0.9c0.6-0.6,0.9-1.3,0.9-2.1s-0.3-1.5-0.9-2.1
			C513.5,596.6,512.8,596.3,512,596.3z"/>
		<path fill="#843C23" d="M520,582.2c0-1.9,0.7-3.5,2-4.9s3-2,4.9-2c1.9,0,3.5,0.7,4.9,2c1.3,1.3,2,3,2,4.9c0,1.9-0.7,3.5-2,4.9
			c-1.3,1.3-3,2-4.9,2c-1.9,0-3.5-0.7-4.9-2C520.6,585.7,520,584.1,520,582.2z M521.1,594l22.4-9l0.9,2.1l-22.5,9L521.1,594z
			 M526.8,579.2c-0.8,0-1.5,0.3-2.1,0.8c-0.6,0.6-0.9,1.3-0.9,2.1c0,0.8,0.3,1.5,0.9,2.1c0.6,0.6,1.3,0.8,2.1,0.8
			c0.8,0,1.5-0.3,2.1-0.8c0.6-0.6,0.9-1.3,0.9-2.1c0-0.8-0.3-1.5-0.9-2.1C528.3,579.5,527.6,579.2,526.8,579.2z M531.7,599.3
			c0-1.9,0.7-3.5,2-4.9c1.3-1.3,3-2,4.9-2c1.9,0,3.5,0.7,4.9,2c1.3,1.3,2,3,2,4.9c0,1.9-0.7,3.5-2,4.9c-1.3,1.3-3,2-4.9,2
			c-1.9,0-3.5-0.7-4.9-2C532.4,602.8,531.7,601.2,531.7,599.3z M538.5,596.3c-0.8,0-1.5,0.3-2.1,0.9c-0.6,0.6-0.9,1.3-0.9,2.1
			s0.3,1.5,0.8,2.1c0.6,0.6,1.2,0.8,2.1,0.8c0.8,0,1.5-0.3,2.1-0.9c0.6-0.6,0.9-1.3,0.9-2.1s-0.3-1.5-0.9-2.1
			C540.1,596.6,539.4,596.3,538.5,596.3z"/>
		<path fill="#843C23" d="M553,574l16.9,36.2h-4.8L548.2,574H553z"/>
		<path fill="#33170E" d="M128.5,618.1l16.9,36.2h-4.8l-16.9-36.2H128.5z"/>
		<path fill="#33170E" d="M148.6,626.3c0-1.9,0.7-3.5,2-4.9s3-2,4.9-2c1.9,0,3.5,0.7,4.9,2c1.3,1.3,2,3,2,4.9c0,1.9-0.7,3.5-2,4.9
			c-1.3,1.3-3,2-4.9,2c-1.9,0-3.5-0.7-4.9-2C149.2,629.8,148.6,628.2,148.6,626.3z M149.7,638.1l22.4-9l0.9,2.1l-22.5,9L149.7,638.1
			z M155.4,623.3c-0.8,0-1.5,0.3-2.1,0.8c-0.6,0.6-0.9,1.3-0.9,2.1c0,0.8,0.3,1.5,0.9,2.1c0.6,0.6,1.3,0.8,2.1,0.8
			c0.8,0,1.5-0.3,2.1-0.8c0.6-0.6,0.8-1.3,0.8-2.1c0-0.8-0.3-1.5-0.9-2.1C156.9,623.6,156.2,623.3,155.4,623.3z M160.3,643.3
			c0-1.9,0.7-3.5,2-4.9s3-2,4.9-2c1.9,0,3.5,0.7,4.9,2c1.3,1.3,2,3,2,4.9c0,1.9-0.7,3.5-2,4.9c-1.3,1.3-3,2-4.9,2
			c-1.9,0-3.5-0.7-4.9-2C161,646.9,160.3,645.2,160.3,643.3z M167.1,640.3c-0.8,0-1.5,0.3-2.1,0.9c-0.6,0.6-0.8,1.3-0.8,2.1
			s0.3,1.5,0.8,2.1c0.6,0.6,1.2,0.8,2.1,0.8c0.8,0,1.5-0.3,2.1-0.9c0.6-0.6,0.9-1.3,0.9-2.1s-0.3-1.5-0.9-2.1
			C168.7,640.6,168,640.3,167.1,640.3z"/>
		<path fill="#33170E" d="M175.1,626.3c0-1.9,0.7-3.5,2-4.9s3-2,4.9-2c1.9,0,3.5,0.7,4.9,2c1.3,1.3,2,3,2,4.9c0,1.9-0.7,3.5-2,4.9
			c-1.3,1.3-3,2-4.9,2c-1.9,0-3.5-0.7-4.9-2C175.7,629.8,175.1,628.2,175.1,626.3z M176.2,638.1l22.4-9l0.9,2.1l-22.5,9L176.2,638.1
			z M181.9,623.3c-0.8,0-1.5,0.3-2.1,0.8c-0.6,0.6-0.9,1.3-0.9,2.1c0,0.8,0.3,1.5,0.9,2.1c0.6,0.6,1.3,0.8,2.1,0.8
			c0.8,0,1.5-0.3,2.1-0.8c0.6-0.6,0.8-1.3,0.8-2.1c0-0.8-0.3-1.5-0.9-2.1C183.5,623.6,182.8,623.3,181.9,623.3z M186.9,643.3
			c0-1.9,0.7-3.5,2-4.9s3-2,4.9-2c1.9,0,3.5,0.7,4.9,2c1.3,1.3,2,3,2,4.9c0,1.9-0.7,3.5-2,4.9c-1.3,1.3-3,2-4.9,2
			c-1.9,0-3.5-0.7-4.9-2C187.5,646.9,186.9,645.2,186.9,643.3z M193.7,640.3c-0.8,0-1.5,0.3-2.1,0.9c-0.6,0.6-0.8,1.3-0.8,2.1
			s0.3,1.5,0.8,2.1c0.6,0.6,1.2,0.8,2.1,0.8c0.8,0,1.5-0.3,2.1-0.9c0.6-0.6,0.9-1.3,0.9-2.1s-0.3-1.5-0.9-2.1
			C195.2,640.6,194.5,640.3,193.7,640.3z"/>
		<path fill="#4C2314" d="M201.6,626.3c0-1.9,0.7-3.5,2-4.9s3-2,4.9-2c1.9,0,3.5,0.7,4.9,2c1.3,1.3,2,3,2,4.9c0,1.9-0.7,3.5-2,4.9
			c-1.3,1.3-3,2-4.9,2c-1.9,0-3.5-0.7-4.9-2C202.3,629.8,201.6,628.2,201.6,626.3z M202.8,638.1l22.4-9l0.9,2.1l-22.5,9L202.8,638.1
			z M208.5,623.3c-0.8,0-1.5,0.3-2.1,0.8c-0.6,0.6-0.9,1.3-0.9,2.1c0,0.8,0.3,1.5,0.9,2.1c0.6,0.6,1.3,0.8,2.1,0.8
			c0.8,0,1.5-0.3,2.1-0.8c0.6-0.6,0.8-1.3,0.8-2.1c0-0.8-0.3-1.5-0.9-2.1C210,623.6,209.3,623.3,208.5,623.3z M213.4,643.3
			c0-1.9,0.7-3.5,2-4.9s3-2,4.9-2c1.9,0,3.5,0.7,4.9,2c1.3,1.3,2,3,2,4.9c0,1.9-0.7,3.5-2,4.9c-1.3,1.3-3,2-4.9,2
			c-1.9,0-3.5-0.7-4.9-2C214,646.9,213.4,645.2,213.4,643.3z M220.2,640.3c-0.8,0-1.5,0.3-2.1,0.9c-0.6,0.6-0.8,1.3-0.8,2.1
			s0.3,1.5,0.8,2.1c0.6,0.6,1.2,0.8,2.1,0.8c0.8,0,1.5-0.3,2.1-0.9c0.6-0.6,0.9-1.3,0.9-2.1s-0.3-1.5-0.9-2.1
			C221.7,640.6,221,640.3,220.2,640.3z"/>
		<path fill="#4C2314" d="M228.1,626.3c0-1.9,0.7-3.5,2-4.9s3-2,4.9-2c1.9,0,3.5,0.7,4.9,2c1.3,1.3,2,3,2,4.9c0,1.9-0.7,3.5-2,4.9
			c-1.3,1.3-3,2-4.9,2c-1.9,0-3.5-0.7-4.9-2C228.8,629.8,228.1,628.2,228.1,626.3z M229.3,638.1l22.4-9l0.9,2.1l-22.5,9L229.3,638.1
			z M235,623.3c-0.8,0-1.5,0.3-2.1,0.8c-0.6,0.6-0.9,1.3-0.9,2.1c0,0.8,0.3,1.5,0.9,2.1c0.6,0.6,1.3,0.8,2.1,0.8
			c0.8,0,1.5-0.3,2.1-0.8c0.6-0.6,0.8-1.3,0.8-2.1c0-0.8-0.3-1.5-0.9-2.1C236.5,623.6,235.8,623.3,235,623.3z M239.9,643.3
			c0-1.9,0.7-3.5,2-4.9s3-2,4.9-2c1.9,0,3.5,0.7,4.9,2c1.3,1.3,2,3,2,4.9c0,1.9-0.7,3.5-2,4.9c-1.3,1.3-3,2-4.9,2
			c-1.9,0-3.5-0.7-4.9-2C240.6,646.9,239.9,645.2,239.9,643.3z M246.7,640.3c-0.8,0-1.5,0.3-2.1,0.9c-0.6,0.6-0.8,1.3-0.8,2.1
			s0.3,1.5,0.8,2.1c0.6,0.6,1.2,0.8,2.1,0.8c0.8,0,1.5-0.3,2.1-0.9c0.6-0.6,0.9-1.3,0.9-2.1s-0.3-1.5-0.9-2.1
			C248.2,640.6,247.5,640.3,246.7,640.3z"/>
		<path fill="#4C2314" d="M254.7,626.3c0-1.9,0.7-3.5,2-4.9s3-2,4.9-2c1.9,0,3.5,0.7,4.9,2c1.3,1.3,2,3,2,4.9c0,1.9-0.7,3.5-2,4.9
			c-1.3,1.3-3,2-4.9,2c-1.9,0-3.5-0.7-4.9-2C255.3,629.8,254.7,628.2,254.7,626.3z M255.8,638.1l22.4-9l0.9,2.1l-22.5,9L255.8,638.1
			z M261.5,623.3c-0.8,0-1.5,0.3-2.1,0.8c-0.6,0.6-0.9,1.3-0.9,2.1c0,0.8,0.3,1.5,0.9,2.1c0.6,0.6,1.3,0.8,2.1,0.8
			c0.8,0,1.5-0.3,2.1-0.8c0.6-0.6,0.8-1.3,0.8-2.1c0-0.8-0.3-1.5-0.9-2.1C263,623.6,262.3,623.3,261.5,623.3z M266.4,643.3
			c0-1.9,0.7-3.5,2-4.9s3-2,4.9-2c1.9,0,3.5,0.7,4.9,2c1.3,1.3,2,3,2,4.9c0,1.9-0.7,3.5-2,4.9c-1.3,1.3-3,2-4.9,2
			c-1.9,0-3.5-0.7-4.9-2C267.1,646.9,266.4,645.2,266.4,643.3z M273.3,640.3c-0.8,0-1.5,0.3-2.1,0.9c-0.6,0.6-0.8,1.3-0.8,2.1
			s0.3,1.5,0.8,2.1c0.6,0.6,1.2,0.8,2.1,0.8c0.8,0,1.5-0.3,2.1-0.9c0.6-0.6,0.9-1.3,0.9-2.1s-0.3-1.5-0.9-2.1
			C274.8,640.6,274.1,640.3,273.3,640.3z"/>
		<path fill="#4C2314" d="M287.7,618.1l16.9,36.2h-4.8l-16.9-36.2H287.7z"/>
		<path fill="#69301C" d="M418.5,616.7h6.7v5.8l-4.2,8.2h-4.6l2.1-8.2V616.7z M429.7,616.7h6.7v5.8l-4.2,8.2h-4.6l2.1-8.2V616.7z"/>
		<path fill="#69301C" d="M445,616.7h6.7v5.8l-4.2,8.2h-4.6l2.1-8.2V616.7z M456.2,616.7h6.7v5.8l-4.2,8.2h-4.6l2.1-8.2V616.7z"/>
		<path fill="#843C23" d="M471.5,616.7h6.7v5.8l-4.2,8.2h-4.6l2.1-8.2V616.7z M482.7,616.7h6.7v5.8l-4.2,8.2h-4.6l2.1-8.2V616.7z"/>
		<path fill="#843C23" d="M498,616.7h6.7v5.8l-4.2,8.2h-4.6l2.1-8.2V616.7z M509.2,616.7h6.7v5.8l-4.2,8.2h-4.6l2.1-8.2V616.7z"/>
		<path fill="#843C23" d="M524.6,616.7h6.7v5.8l-4.2,8.2h-4.6l2.1-8.2V616.7z M535.8,616.7h6.7v5.8l-4.2,8.2h-4.6l2.1-8.2V616.7z"/>
		<path fill="#843C23" d="M551.1,616.7h6.7v5.8l-4.2,8.2H549l2.1-8.2V616.7z M562.3,616.7h6.7v5.8l-4.2,8.2h-4.6l2.1-8.2V616.7z"/>
		<path fill="#33170E" d="M153.2,660.8h6.7v5.8l-4.2,8.2h-4.6l2.1-8.2V660.8z M164.4,660.8h6.7v5.8l-4.2,8.2h-4.6l2.1-8.2V660.8z"/>
		<path fill="#4C2314" d="M179.7,660.8h6.7v5.8l-4.2,8.2h-4.6l2.1-8.2V660.8z M190.9,660.8h6.7v5.8l-4.2,8.2h-4.6l2.1-8.2V660.8z"/>
		<path fill="#4C2314" d="M206.2,660.8h6.7v5.8l-4.2,8.2h-4.6l2.1-8.2V660.8z M217.4,660.8h6.7v5.8l-4.2,8.2h-4.6l2.1-8.2V660.8z"/>
		<path fill="#4C2314" d="M232.8,660.8h6.7v5.8l-4.2,8.2h-4.6l2.1-8.2V660.8z M244,660.8h6.7v5.8l-4.2,8.2h-4.6l2.1-8.2V660.8z"/>
		<path fill="#69301C" d="M259.3,660.8h6.7v5.8l-4.2,8.2h-4.6l2.1-8.2V660.8z M270.5,660.8h6.7v5.8l-4.2,8.2h-4.6l2.1-8.2V660.8z"/>
		<path fill="#69301C" d="M285.8,660.8h6.7v5.8l-4.2,8.2h-4.6l2.1-8.2V660.8z M297,660.8h6.7v5.8l-4.2,8.2h-4.6l2.1-8.2V660.8z"/>
	</g>
</g>
</svg>
